<svg xmlns="http://www.w3.org/2000/svg" width="231.841" height="321.222" viewBox="0 0 231.841 321.222">
  <g id="Group_147" data-name="Group 147" transform="translate(1606.508 146.326)">
    <g id="Group_144" data-name="Group 144" transform="translate(-1606.508 -146.326)">
      <path id="Path_456" data-name="Path 456" d="M-1466.142-38.459c0-30.722,31.85-66.939,71.528-66.939,40.731,0,71.843,38.445,71.843,66.939,0,35.752-32.165,64.735-71.843,64.735S-1466.142-2.707-1466.142-38.459Z" transform="translate(1510.348 118.288)" fill="#fff"/>
      <path id="Path_457" data-name="Path 457" d="M-1331.445,387.478c0,5.825-.021,11.649.017,17.474a2.635,2.635,0,0,1-1.473,2.625c-10.781,6.391-21.495,12.9-32.317,19.219-8.441,4.932-16.753,10.085-25.134,15.122-6.174,3.711-12.383,7.364-18.536,11.108a3.263,3.263,0,0,1-3.952.007q-9.775-6.043-19.74-11.779c-8.422-4.855-16.7-9.947-25.037-14.939q-15.617-9.351-31.252-18.674a2.618,2.618,0,0,1-1.509-2.491c.041-11.6.021-23.193.031-34.79,0-2.012.086-2.112,1.836-1.091,4.641,2.707,9.219,5.521,13.835,8.272,3.63,2.163,7.2,4.449,10.941,6.4,4.185,2.181,8.161,4.7,12.224,7.078a1.745,1.745,0,0,0,2.02.007c9.13-5.464,18.369-10.747,27.4-16.382,3.233-2.018,6.547-3.906,9.833-5.837a2.346,2.346,0,0,1,2.728.046c5.983,3.64,12.063,7.121,18.073,10.717,4.429,2.65,8.755,5.475,13.223,8.057,1.928,1.114,3.742,2.4,5.679,3.489a2.223,2.223,0,0,0,2.477-.048c5.552-3.332,11.139-6.6,16.695-9.93q10.289-6.158,20.547-12.367c1.133-.683,1.417-.231,1.412.921-.026,5.93-.012,11.859-.012,17.789Z" transform="translate(1526.951 -206.289)" fill="#fff"/>
      <path id="Path_458" data-name="Path 458" d="M-1413.4,189.969c2.123-.905,3.712.1,5.48,1.215,7.324,4.609,14.7,9.143,21.953,13.86,3.492,2.269,7.061,4.421,10.624,6.578,1.269.768.48,1.224-.185,1.651q-5.412,3.467-10.857,6.883c-3.449,2.165-6.925,4.288-10.375,6.451-11.22,7.034-22.519,13.949-33.62,21.167-6.323,4.111-12.987,7.668-19.156,12.014a2.074,2.074,0,0,1-2.566.052q-12.458-7.527-24.957-14.989c-4.2-2.522-8.412-5.032-12.59-7.595a1.578,1.578,0,0,0-1.993.323,75.624,75.624,0,0,1-8.377,5.165c-4.642,2.7-9.171,5.577-13.81,8.277-5.115,2.976-10.187,6.029-15.251,9.092a1.668,1.668,0,0,1-2.007-.022c-3.158-2-6.342-3.962-9.511-5.946q-5.351-3.351-10.693-6.718c-6.7-4.244-13.361-8.536-20.078-12.745-7.6-4.764-15.257-9.449-22.876-14.19-3.853-2.4-7.67-4.854-11.521-7.254-.939-.585-1.035-1.012-.027-1.634,6.86-4.233,13.7-8.5,20.556-12.741,4.684-2.9,9.39-5.754,14.077-8.644,1.026-.632,2.022-.268,3.033-.008.065.125.13.248.195.371l-.036-.009c2.245,1.132,4.391,2.429,6.539,3.736,5.889,3.583,11.83,7.08,17.749,10.615q14.829,8.854,29.656,17.712c7.287,4.351,14.6,8.654,21.837,13.094a2.834,2.834,0,0,0,3.477,0c10.629-6.427,21.306-12.775,31.967-19.148C-1444.011,208.971-1415.306,191.641-1413.4,189.969Z" transform="translate(1606.508 -83.818)" fill="#fff"/>
      <path id="Path_459" data-name="Path 459" d="M-1332.2,121.9c-.805,1.775-30.613,19-43.342,26.613-10.661,6.374-21.338,12.722-31.967,19.148a2.834,2.834,0,0,1-3.477,0c-7.233-4.44-14.55-8.743-21.837-13.094q-14.829-8.855-29.656-17.712c-5.919-3.534-11.86-7.031-17.749-10.615-2.148-1.307-4.294-2.6-6.538-3.736l.036.009c-.065-.123-.13-.246-.195-.371-2.566-11.5-.422-22.1,6.041-31.884.412,3.5.385,7,.92,10.446,1.66,10.713,5.947,20.02,14.551,26.984.713.577,1.732,1.722,2.331,1.248.732-.579-.357-1.626-.7-2.433-.983-2.306-2.065-4.57-3.149-6.94a5.166,5.166,0,0,1,3.45,1.029,34.148,34.148,0,0,1,9.45,8.419c4.372,5.428,8.279,11.214,12.73,16.584a26.11,26.11,0,0,0,3.97,4l.39.254c.061-.193.066-.366-.163-.454q-.834-3.1-1.668-6.2c-.133-.491-.583-1.146-.11-1.448.61-.389,1.005.348,1.344.762,5.527,6.75,12.824,10.509,21.057,12.946,6.879,2.036,13.245.514,19.577-1.944a36.483,36.483,0,0,0,15.444-10.992,2.46,2.46,0,0,1,1.728-1.041c-.572,2.014-1.123,3.945-1.668,5.877-.13.461-.622.973.079,1.36.635.351.948-.209,1.3-.563a96.419,96.419,0,0,0,11.219-14.139c3.979-5.886,8.6-11.111,15.1-14.335.4-.2.793-.878,1.347-.314.512.522-.052.97-.244,1.4-1.091,2.436-2.221,4.854-3.328,7.283-.16.352-.6.757-.147,1.109.432.337.748-.138,1.07-.378,8.195-6.089,13.059-14.265,15.2-24.168a73.886,73.886,0,0,0,1.417-14.227,10.614,10.614,0,0,1,3.053,3.72c3.618,6.544,4.542,13.64,4.188,20.976A30.1,30.1,0,0,1-1332.2,121.9Z" transform="translate(1525.31 -15.751)" fill="#281b13"/>
      <path id="Path_460" data-name="Path 460" d="M-1176.289,28.151l-2.735-3.708a16.253,16.253,0,0,1,10.078,2.658c4.358,2.98,6.847,7.241,8.27,12.212a32.137,32.137,0,0,1-.444,18.272,1.351,1.351,0,0,0-.054,1.053l3.952-3.178a11.769,11.769,0,0,1-3.16,8.447c-3.756,4.087-8.46,5.142-13.765,4.076-1.8-.361-3.6-.692-5.374-1.136-.938-.234-1.384-.051-1.671.922a51.872,51.872,0,0,1-2.109,5.78,53.472,53.472,0,0,0-10.531-25.134c1.778.553,2.963,1.862,4.675,2.568-.429-.7-.845-1.412-1.289-2.105-1.807-2.817-3.669-5.593-4.411-8.949-1.076-4.868.4-9.639,3.919-11.943,3.177-2.08,6.648-1.941,10.14-.961,1.436.4,2.831.95,4.245,1.431Zm-11.008,7.21c1.08,0,1.933-.378,1.946-1.441.014-1.2-1.041-1.863-1.848-2.57-.258-.226-1.791,1.9-1.723,2.543A1.537,1.537,0,0,0-1187.3,35.361Zm-2.347,4.282c1.721,1.4,3.3,1.519,4.975.458a3.491,3.491,0,0,0,1.692-4.243C-1184.15,38.981-1186.413,40.107-1189.644,39.643Z" transform="translate(1324.737 29.346)" fill="#281b13"/>
      <path id="Path_461" data-name="Path 461" d="M-1370.324,50.477c.895-.63,1.832-1.209,2.663-1.913.333-.282.64-.468.928-.231.428.352-.069.64-.243.9-1.94,2.861-3.853,5.732-5.526,8.767a31.44,31.44,0,0,0-3.858,13.3c-.046.7.117,1.8-.626,1.922-.9.147-.762-1.018-1-1.629-.621-1.6-.716-3.861-1.862-4.673-1.2-.85-3.218.5-4.9.8-3.384.595-6.75.878-10.093-.25a13.242,13.242,0,0,1-8.536-12.135l4.277,3.423c.218-1.629-.431-2.861-.759-4.135-2.274-8.861-1.076-17.068,4.7-24.335,3.391-4.265,8.023-5.928,13.544-5.919-.755,1.646-2.135,2.715-2.851,4.475,1.773-.568,3.275-1.06,4.784-1.531a13.247,13.247,0,0,1,8.192-.074c4.94,1.606,7.333,6.394,6.022,11.892-.86,3.6-2.831,6.713-4.423,9.993-.207.425-.767.791-.414,1.394-.073-.028-.145-.053-.217-.078l-.016.2Zm-.157-11.124c-3.7,1.08-5.721-.767-7.238-4.069-.163,2.856.591,4.219,2.463,5.079C-1373.537,41.153-1372.075,40.906-1370.481,39.352Zm-3.163-3.557c.552.023,2.111-1.72,1.987-2.174a2.184,2.184,0,0,0-1.919-1.79,1.244,1.244,0,0,0-1.478,1.4C-1375.025,34.342-1374.166,35.031-1373.644,35.795Z" transform="translate(1467.35 29.39)" fill="#281b13"/>
      <path id="Path_462" data-name="Path 462" d="M-1164.672-117.319A40.767,40.767,0,0,0-1187-128.234a31.168,31.168,0,0,0-4.853-.376c-.413,0-1.058.264-1.084-.5-.02-.587.565-.538.934-.616,1.279-.268,2.56-.55,3.855-.713a5.055,5.055,0,0,0,4.26-3.19,20.939,20.939,0,0,1,15.583-12.213c8.972-1.722,16.425,1.163,22.211,8.21a26.279,26.279,0,0,1,6.2,18.163,3.171,3.171,0,0,1-.463,1.88c-1-.792-1.356-2.059-2.294-3.112a9.717,9.717,0,0,0-.754,2.793,33.534,33.534,0,0,1-5.034,11.764,1.761,1.761,0,0,0-.087,2.1c2.189,4.048,4.271,8.154,6.355,12.258.2.4.854.976.186,1.346s-.794-.5-1.053-.867a102.481,102.481,0,0,0-28.043-26.963c-.174-.115-.371-.2-.542-.314-.254-.176-.586-.354-.4-.737.209-.434.554-.14.8-.048,2.1.784,4.192,1.592,6.287,2.392l.394.035Z" transform="translate(1323.186 146.326)" fill="#281b13"/>
      <path id="Path_463" data-name="Path 463" d="M-1450.808-91.331a102.7,102.7,0,0,1,6.4-12.852c.28-.515.736-.939.127-1.656a25.831,25.831,0,0,1-5.733-14.356,5.464,5.464,0,0,0-.226-.713l-2.583,3.711a16.225,16.225,0,0,1,.026-8.208c1.665-6.673,4.5-12.653,10.361-16.7,9.287-6.409,23.729-5.731,31.247,4.909a19.491,19.491,0,0,1,2.192,4.156,3.658,3.658,0,0,0,2.976,2.468c1.6.268,3.192.578,4.769.948.378.089,1.122-.092,1.072.6-.047.666-.718.493-1.141.489a38.362,38.362,0,0,0-8.245.995,43.081,43.081,0,0,0-19.789,11.144c2.178-.87,4.013-1.622,5.864-2.329.474-.181,1.115-.826,1.47-.018.274.622-.539.789-.925,1.053a109.171,109.171,0,0,0-25.59,23.972c-.6.79-1.216,1.568-1.837,2.341C-1450.421-91.314-1450.571-91.347-1450.808-91.331Z" transform="translate(1501.58 146.247)" fill="#281b13"/>
      <path id="Path_464" data-name="Path 464" d="M-1264.526,178.078c-9.154,9.664-31.885,9.7-42.835-.137a20.821,20.821,0,0,1,6,.905,53.418,53.418,0,0,0,7.771,1.895,4.259,4.259,0,0,0,5.125-3.662c.117-.766-.031-1.128-.842-1.318a31.045,31.045,0,0,1-4.215-1.234,11.241,11.241,0,0,1-5.471-4.311c-1.281-1.954-.846-3.512,1.3-4.41a20.337,20.337,0,0,1,8.456-1.48c4.035.107,8.067.321,12.1.527a7.161,7.161,0,0,1,1.984.411c3.927,1.384,4.378,3.4,1.454,6.433a14.294,14.294,0,0,1-7.9,3.891c-1.314.254-1.676.709-1.231,2.036.745,2.22,1.911,3.185,4.264,3.159,2.994-.033,5.718-1.2,8.514-2.058C-1268.267,178.178-1266.515,177.411-1264.526,178.078Z" transform="translate(1401.573 -66.485)" fill="#281b13"/>
      <path id="Path_465" data-name="Path 465" d="M-1484.086,192.659l-.036-.009Z" transform="translate(1522.665 -85.895)" fill="#fefefd"/>
      <path id="Path_466" data-name="Path 466" d="M-1326.929,278.044c.23.088.224.261.163.454l-.39-.254Q-1327.046,278.14-1326.929,278.044Z" transform="translate(1415.133 -144.395)" fill="#fefefd"/>
      <path id="Path_467" data-name="Path 467" d="M-1298.873,107.19l-.207.163.016-.2c.072.025.143.05.217.078Z" transform="translate(1395.899 -27.323)" fill="#fefefd"/>
      <path id="Path_468" data-name="Path 468" d="M-1103.757-54.221l.129.373-.394-.035Z" transform="translate(1262.272 83.228)" fill="#fefefd"/>
    </g>
    <g id="Group_145" data-name="Group 145" transform="translate(-1570.827 111.093)">
      <path id="Path_469" data-name="Path 469" d="M-1485.384,695.018v12.875h-7.827V671.05h18.381a26.1,26.1,0,0,1,7.207.7,10.184,10.184,0,0,1,5.722,5.047,12.684,12.684,0,0,1,1.565,6.235,13.925,13.925,0,0,1-1.026,5.318,10.9,10.9,0,0,1-2.861,4.129,9.2,9.2,0,0,1-3.482,1.984,18.511,18.511,0,0,1-5.074.553Zm0-6.559h10.689a6.643,6.643,0,0,0,4.022-.918q1.727-1.377,1.727-4.778,0-3.724-2.618-4.778a8.585,8.585,0,0,0-2.969-.378h-10.851Z" transform="translate(1493.211 -671.05)" fill="#281b13"/>
      <path id="Path_470" data-name="Path 470" d="M-1360.827,713.143q0-2.834-1.147-3.82t-4.494-.985h-12.524v-5.749h12.524q3.347,0,4.63.122a12.616,12.616,0,0,1,2.577.527q6.127,2.321,5.83,11.093V729.5h-15.6a45.584,45.584,0,0,1-5.79-.243,6.857,6.857,0,0,1-2.821-1.053,7.491,7.491,0,0,1-3.293-6.667,9.027,9.027,0,0,1,1.309-4.845,6.58,6.58,0,0,1,3.442-2.875,20.666,20.666,0,0,1,6.289-.675Zm0,5.749h-8.557l-1.242-.027a2.879,2.879,0,0,0-2.011.675,2.325,2.325,0,0,0-.742,1.809,1.99,1.99,0,0,0,.9,1.862,6.414,6.414,0,0,0,3.091.54h8.557Z" transform="translate(1416.295 -692.656)" fill="#281b13"/>
      <path id="Path_471" data-name="Path 471" d="M-1271.662,702.589h14.279a19.865,19.865,0,0,1,4.885.459,7.253,7.253,0,0,1,3.05,1.7q2.834,2.565,2.834,8.178V729.5h-7.4V712.09a3.915,3.915,0,0,0-.891-2.875,4.052,4.052,0,0,0-2.915-.877h-6.451V729.5h-7.4Z" transform="translate(1341.435 -692.656)" fill="#281b13"/>
      <path id="Path_472" data-name="Path 472" d="M-1156.03,680.983V671.05h7.4v36.844h-12.74a21.353,21.353,0,0,1-5.83-.594,11.643,11.643,0,0,1-7.072-5.857,15.222,15.222,0,0,1-1.565-7.18q0-6.937,4.642-10.77,3.023-2.51,8.206-2.51Zm0,21.162V686.732h-5.344a6.4,6.4,0,0,0-5.371,2.348,8.224,8.224,0,0,0-1.565,5.183q0,4.562,2.618,6.532a7.012,7.012,0,0,0,4.319,1.35Z" transform="translate(1275.792 -671.05)" fill="#281b13"/>
      <path id="Path_473" data-name="Path 473" d="M-1050.915,713.143q0-2.834-1.147-3.82t-4.494-.985h-12.524v-5.749h12.524q3.346,0,4.629.122a12.621,12.621,0,0,1,2.577.527q6.127,2.321,5.83,11.093V729.5h-15.6a45.587,45.587,0,0,1-5.79-.243,6.86,6.86,0,0,1-2.821-1.053,7.492,7.492,0,0,1-3.293-6.667,9.026,9.026,0,0,1,1.309-4.845,6.58,6.58,0,0,1,3.442-2.875,20.665,20.665,0,0,1,6.289-.675Zm0,5.749h-8.557l-1.242-.027a2.879,2.879,0,0,0-2.011.675,2.324,2.324,0,0,0-.742,1.809,1.99,1.99,0,0,0,.9,1.862,6.414,6.414,0,0,0,3.091.54h8.557Z" transform="translate(1203.985 -692.656)" fill="#281b13"/>
    </g>
    <g id="Group_146" data-name="Group 146" transform="translate(-1571.241 157.408)">
      <path id="Path_474" data-name="Path 474" d="M-1483.55,819.918h-4.127c-2.829-.128-4.212,1.255-4.34,4.34h8.467v1.808h-8.488c.064,3,1.574,4.574,4.233,4.425h4.255V832.3h-4.659c-2.447,0-3.787-.51-4.851-1.829a7.508,7.508,0,0,1-1.468-4.978c0-2.829.766-4.829,2.361-6.17,1.021-.851,2.4-1.213,4.617-1.213h4Z" transform="translate(1494.527 -818.11)" fill="#281b13"/>
      <path id="Path_475" data-name="Path 475" d="M-1456.253,830.269h2.489l2.829,3.808,2.851-3.808h2.425l-4.021,5.127,4.127,5.233h-2.49l-2.893-3.872-3,3.872h-2.426l4.127-5.233Z" transform="translate(1468.379 -826.44)" fill="#281b13"/>
      <path id="Path_476" data-name="Path 476" d="M-1412.9,830.269c2.17,0,2.957.255,3.872,1.255a5.68,5.68,0,0,1,1.234,3.915,5.987,5.987,0,0,1-1.553,4.276c-.83.744-1.553.915-3.787.915h-1.978v3.3h-2.063V830.269Zm-2.212,8.722h1.978a3.37,3.37,0,0,0,2.425-.681,4.531,4.531,0,0,0,.787-3c0-2.426-.915-3.4-3.212-3.4h-1.978Z" transform="translate(1441.537 -826.44)" fill="#281b13"/>
      <path id="Path_477" data-name="Path 477" d="M-1377.7,830.266c3.063-.042,4.084.894,4.021,3.659v1.021h-1.936v-1.021c-.021-1.51-.425-1.936-1.872-1.936h-.808v8.637h-2.064v-10.36Z" transform="translate(1416.315 -826.437)" fill="#281b13"/>
      <path id="Path_478" data-name="Path 478" d="M-1346.625,836.12h-6.212a2.886,2.886,0,0,0,.723,2.191c.489.51.979.638,2.51.681h2.978v1.638h-3.531c-1.787,0-2.617-.234-3.4-.936a5.337,5.337,0,0,1-1.468-4.042,5.043,5.043,0,0,1,2.255-4.659,5.647,5.647,0,0,1,3.17-.723h2.978v1.638h-2.681c-2.212-.043-3.169.659-3.531,2.574h6.212Z" transform="translate(1398.961 -826.44)" fill="#281b13"/>
      <path id="Path_479" data-name="Path 479" d="M-1314.236,831.907h-4.659c-1.425,0-1.638.043-1.893.276a1.711,1.711,0,0,0-.362,1.17c0,1.042.34,1.255,2.043,1.255h1.4c2.3.021,2.4.043,2.872.319a2.953,2.953,0,0,1,1.042,2.6,2.944,2.944,0,0,1-1.34,2.808c-.489.255-.936.3-2.574.3h-5.468v-1.638h4.978a5.377,5.377,0,0,0,1.766-.149q.511-.191.511-1.149c0-.681-.192-1.042-.638-1.17a8.7,8.7,0,0,0-1.51-.064h-.83c-2.212,0-2.7-.085-3.3-.553a3.329,3.329,0,0,1-1.085-2.574,2.87,2.87,0,0,1,1.362-2.638,5.123,5.123,0,0,1,2.468-.425h5.212Z" transform="translate(1377.209 -826.44)" fill="#281b13"/>
      <path id="Path_480" data-name="Path 480" d="M-1279.51,831.907h-4.659c-1.425,0-1.638.043-1.893.276a1.71,1.71,0,0,0-.361,1.17c0,1.042.34,1.255,2.042,1.255h1.4c2.3.021,2.4.043,2.872.319a2.954,2.954,0,0,1,1.042,2.6,2.945,2.945,0,0,1-1.34,2.808c-.49.255-.936.3-2.574.3h-5.468v-1.638h4.978a5.38,5.38,0,0,0,1.766-.149q.511-.191.51-1.149c0-.681-.191-1.042-.638-1.17a8.7,8.7,0,0,0-1.51-.064h-.83c-2.212,0-2.7-.085-3.3-.553a3.329,3.329,0,0,1-1.085-2.574,2.871,2.871,0,0,1,1.361-2.638,5.124,5.124,0,0,1,2.468-.425h5.212Z" transform="translate(1353.421 -826.44)" fill="#281b13"/>
      <path id="Path_481" data-name="Path 481" d="M-1235.822,830.491h6.127c2.148,0,2.978-.617,2.978-2.191a1.949,1.949,0,0,0-1.234-2.042,7.51,7.51,0,0,0-2.17-.17h-1.17a6.641,6.641,0,0,1-3.532-.681,3.39,3.39,0,0,1-1.51-3.021,4.137,4.137,0,0,1,1.936-3.617,6.855,6.855,0,0,1,3.574-.659h5.829v1.808h-5.829a4.133,4.133,0,0,0-2.3.4,2.086,2.086,0,0,0-.808,1.744c0,1.425.872,1.978,3.106,1.978h.851c2.4,0,3.4.192,4.191.766a4.248,4.248,0,0,1,1.468,3.425,3.712,3.712,0,0,1-1.957,3.51c-.83.426-1.659.553-3.7.553h-5.85Z" transform="translate(1317.647 -818.11)" fill="#281b13"/>
      <path id="Path_482" data-name="Path 482" d="M-1189.479,821.939h2.4c3.6-.021,4.744,1.106,4.7,4.51v5.85h-2.064v-6.021c.021-2.106-.6-2.723-2.638-2.7h-2.4V832.3h-2.064V818.11h2.064Z" transform="translate(1286.963 -818.11)" fill="#281b13"/>
      <path id="Path_483" data-name="Path 483" d="M-1153.51,818.11h2.064v2.149h-2.064Zm2.064,3.829V832.3h-2.064v-10.36Z" transform="translate(1260.908 -818.11)" fill="#281b13"/>
      <path id="Path_484" data-name="Path 484" d="M-1133.36,830.269c2.17,0,2.957.255,3.872,1.255a5.68,5.68,0,0,1,1.234,3.915,5.987,5.987,0,0,1-1.553,4.276c-.83.744-1.553.915-3.786.915h-1.978v3.3h-2.064V830.269Zm-2.212,8.722h1.978a3.37,3.37,0,0,0,2.425-.681,4.531,4.531,0,0,0,.787-3c0-2.426-.915-3.4-3.212-3.4h-1.978Z" transform="translate(1250.033 -826.44)" fill="#281b13"/>
      <path id="Path_485" data-name="Path 485" d="M-1096.543,830.269c2.17,0,2.957.255,3.872,1.255a5.679,5.679,0,0,1,1.234,3.915,5.988,5.988,0,0,1-1.553,4.276c-.83.744-1.553.915-3.787.915h-1.978v3.3h-2.064V830.269Zm-2.213,8.722h1.978a3.371,3.371,0,0,0,2.425-.681,4.531,4.531,0,0,0,.787-3c0-2.426-.915-3.4-3.212-3.4h-1.978Z" transform="translate(1224.811 -826.44)" fill="#281b13"/>
      <path id="Path_486" data-name="Path 486" d="M-1064,818.11h2.064v2.149H-1064Zm2.064,3.829V832.3H-1064v-10.36Z" transform="translate(1199.588 -818.11)" fill="#281b13"/>
      <path id="Path_487" data-name="Path 487" d="M-1043.339,830.267c2.978-.043,4.191,1.17,4.191,4.191v6.17h-2.063V834.67c0-2.085-.617-2.765-2.447-2.765h-2.4v8.722h-2.064v-10.36Z" transform="translate(1188.713 -826.437)" fill="#281b13"/>
      <path id="Path_488" data-name="Path 488" d="M-1003.479,839.459c0,2.659-.043,2.893-.532,3.531-.681.723-1.6.957-3.638.936h-4.425v-1.638h4.744c1.659,0,1.808-.128,1.787-1.659h-2.212c-2.085,0-2.553-.085-3.425-.6-1.319-.808-2.021-2.3-2.021-4.361a6.153,6.153,0,0,1,1.319-4.085c.872-1,1.893-1.319,4.127-1.319h4.276Zm-4.128-7.552c-1.68,0-2.3.213-2.808.978a5.731,5.731,0,0,0-.66,2.787,4.284,4.284,0,0,0,.723,2.51c.489.617,1.064.808,2.383.808h2.425v-7.084Z" transform="translate(1164.787 -826.44)" fill="#281b13"/>
    </g>
  </g>
</svg>
