<svg xmlns="http://www.w3.org/2000/svg" width="90.841" height="96.94" viewBox="0 0 90.841 96.94">
  <g id="Group_139" data-name="Group 139" transform="translate(-373.939 146.326)">
    <path id="Path_441" data-name="Path 441" d="M552.343,375.87c0,2.282-.008,4.565.007,6.847a1.032,1.032,0,0,1-.577,1.029c-4.224,2.5-8.422,5.053-12.662,7.531-3.307,1.932-6.564,3.952-9.848,5.925-2.419,1.454-4.852,2.886-7.263,4.352a1.278,1.278,0,0,1-1.548,0q-3.831-2.368-7.735-4.615c-3.3-1.9-6.543-3.9-9.81-5.853q-6.119-3.664-12.245-7.317a1.026,1.026,0,0,1-.591-.976c.016-4.544.008-9.088.012-13.631,0-.788.034-.828.72-.427,1.818,1.061,3.612,2.163,5.421,3.241,1.422.848,2.821,1.743,4.287,2.507,1.64.854,3.2,1.842,4.79,2.773a.684.684,0,0,0,.792,0c3.577-2.141,7.2-4.211,10.735-6.419,1.267-.791,2.565-1.53,3.853-2.287a.919.919,0,0,1,1.069.018c2.344,1.426,4.726,2.79,7.081,4.2,1.735,1.038,3.431,2.145,5.181,3.157.755.437,1.466.939,2.225,1.367a.871.871,0,0,0,.97-.019c2.175-1.306,4.365-2.588,6.542-3.891q4.031-2.413,8.051-4.846c.444-.268.555-.09.553.361-.01,2.323,0,4.647,0,6.97Z" transform="translate(-101.8 -451.202)" fill="#efa81f"/>
    <path id="Path_442" data-name="Path 442" d="M449.6,189.756c.832-.355,1.454.04,2.147.476,2.87,1.806,5.758,3.582,8.6,5.43,1.368.889,2.767,1.732,4.163,2.577.5.3.188.48-.072.647q-2.12,1.359-4.254,2.7c-1.352.848-2.713,1.68-4.065,2.528-4.4,2.756-8.823,5.466-13.173,8.294-2.478,1.611-5.088,3-7.505,4.708a.813.813,0,0,1-1.005.02q-4.882-2.949-9.779-5.873c-1.647-.988-3.3-1.972-4.933-2.976a.618.618,0,0,0-.781.126,29.631,29.631,0,0,1-3.282,2.024c-1.819,1.057-3.593,2.185-5.411,3.243-2,1.166-3.991,2.362-5.976,3.563a.653.653,0,0,1-.786-.009c-1.238-.784-2.485-1.552-3.726-2.33q-2.1-1.313-4.19-2.632c-2.624-1.663-5.235-3.345-7.867-4.994-2.979-1.867-5.978-3.7-8.963-5.56-1.51-.939-3.005-1.9-4.514-2.842-.368-.229-.406-.4-.01-.64,2.688-1.659,5.367-3.331,8.054-4.992,1.835-1.134,3.679-2.255,5.516-3.387a1.412,1.412,0,0,1,1.188,0l.076.145-.014,0c.879.444,1.721.952,2.562,1.464,2.307,1.4,4.635,2.774,6.954,4.159l11.62,6.94c2.855,1.705,5.722,3.391,8.556,5.131a1.11,1.11,0,0,0,1.362,0c4.165-2.518,8.348-5.005,12.525-7.5l14.962-8.947a.591.591,0,0,0,.4-.363A2.3,2.3,0,0,0,449.6,189.756Z" transform="translate(0 -294.49)" fill="#efa81f"/>
    <path id="Path_443" data-name="Path 443" d="M553.5,102.658a2.3,2.3,0,0,1-1.616,1.118,2.193,2.193,0,0,0-.229-.806l-.175.012v1.156l-14.962,8.947c-4.177,2.5-8.361,4.985-12.525,7.5a1.11,1.11,0,0,1-1.362,0c-2.834-1.74-5.7-3.426-8.556-5.131l-11.62-6.94c-2.319-1.385-4.647-2.755-6.954-4.159-.842-.512-1.683-1.02-2.562-1.464l.014,0-.076-.145a15.642,15.642,0,0,1,2.367-12.493c.161,1.371.151,2.741.36,4.093a16.137,16.137,0,0,0,5.7,10.573c.28.226.678.675.913.489.287-.227-.14-.637-.275-.953-.385-.9-.809-1.791-1.234-2.719a2.024,2.024,0,0,1,1.352.4,13.379,13.379,0,0,1,3.7,3.3c1.713,2.127,3.244,4.394,4.988,6.5a10.223,10.223,0,0,0,1.555,1.568l.153.1c.024-.076.026-.143-.064-.178q-.327-1.215-.654-2.43c-.052-.192-.229-.449-.043-.567.239-.153.394.136.526.3a16.048,16.048,0,0,0,8.251,5.073c2.7.8,5.19.2,7.671-.762a14.3,14.3,0,0,0,6.051-4.307.964.964,0,0,1,.677-.408c-.224.789-.44,1.546-.654,2.3-.051.181-.244.381.031.533.249.137.371-.082.509-.221a37.784,37.784,0,0,0,4.4-5.54,15.7,15.7,0,0,1,5.918-5.617c.157-.078.311-.344.528-.123.2.2-.02.38-.1.549-.427.954-.87,1.9-1.3,2.854-.063.138-.234.3-.058.434s.293-.054.419-.148a15.41,15.41,0,0,0,5.956-9.469,28.93,28.93,0,0,0,.555-5.575,4.158,4.158,0,0,1,1.2,1.458,15.053,15.053,0,0,1,1.641,8.219A11.784,11.784,0,0,1,553.5,102.658Z" transform="translate(-103.901 -207.392)" fill="#281b13"/>
    <path id="Path_444" data-name="Path 444" d="M792.655,25.889l-1.072-1.453a6.368,6.368,0,0,1,3.949,1.041,8.269,8.269,0,0,1,3.24,4.785,12.592,12.592,0,0,1-.174,7.159.53.53,0,0,0-.021.412l1.548-1.245a4.612,4.612,0,0,1-1.238,3.31,5.4,5.4,0,0,1-5.394,1.6c-.7-.141-1.41-.271-2.106-.445-.367-.092-.542-.02-.655.361a20.317,20.317,0,0,1-.827,2.265,20.951,20.951,0,0,0-4.126-9.848c.7.217,1.161.729,1.832,1.006-.168-.275-.331-.553-.505-.825a10.97,10.97,0,0,1-1.728-3.506,4.362,4.362,0,0,1,1.536-4.68,4.632,4.632,0,0,1,3.973-.377c.563.158,1.109.372,1.663.561Zm-4.313,2.825c.423,0,.757-.148.762-.565.006-.47-.408-.73-.724-1.007-.1-.089-.7.746-.675,1A.6.6,0,0,0,788.342,28.714Zm-.92,1.678a1.511,1.511,0,0,0,1.949.179,1.368,1.368,0,0,0,.663-1.663A2.16,2.16,0,0,1,787.422,30.392Z" transform="translate(-360.551 -149.687)" fill="#281b13"/>
    <path id="Path_445" data-name="Path 445" d="M590.02,34.6c.35-.247.718-.474,1.043-.75.131-.111.251-.183.364-.09.168.138-.027.251-.1.351-.76,1.121-1.51,2.246-2.165,3.435a12.319,12.319,0,0,0-1.511,5.213c-.018.272.046.705-.245.753-.354.058-.3-.4-.392-.638-.243-.627-.281-1.513-.729-1.831-.47-.333-1.261.2-1.919.313a7.856,7.856,0,0,1-3.955-.1,5.189,5.189,0,0,1-3.345-4.755l1.676,1.341a3.879,3.879,0,0,0-.3-1.62,10.377,10.377,0,0,1,1.843-9.535,6.332,6.332,0,0,1,5.307-2.319c-.3.645-.837,1.064-1.117,1.753.694-.223,1.283-.415,1.874-.6a5.191,5.191,0,0,1,3.21-.029,3.7,3.7,0,0,1,2.359,4.659,19.538,19.538,0,0,1-1.733,3.916c-.081.167-.3.31-.162.546l-.085-.03-.006.078Zm-.062-4.359c-1.45.423-2.242-.3-2.836-1.594-.064,1.119.232,1.653.965,1.99A1.509,1.509,0,0,0,589.959,30.239Zm-1.239-1.394c.216.009.827-.674.779-.852a.855.855,0,0,0-.752-.7.487.487,0,0,0-.579.549C588.178,28.275,588.515,28.545,588.719,28.845Z" transform="translate(-178.064 -149.63)" fill="#281b13"/>
    <path id="Path_446" data-name="Path 446" d="M798.584-134.961a15.972,15.972,0,0,0-8.749-4.277,12.21,12.21,0,0,0-1.9-.147c-.162,0-.415.1-.425-.2-.008-.23.221-.211.366-.241.5-.105,1-.215,1.51-.279a1.981,1.981,0,0,0,1.669-1.25,8.2,8.2,0,0,1,6.106-4.785,8.535,8.535,0,0,1,8.7,3.217,10.3,10.3,0,0,1,2.43,7.117,1.24,1.24,0,0,1-.181.736c-.393-.31-.531-.807-.9-1.219a3.821,3.821,0,0,0-.3,1.094,13.135,13.135,0,0,1-1.972,4.609.69.69,0,0,0-.034.821c.858,1.586,1.673,3.2,2.49,4.8.079.155.335.383.073.527s-.311-.195-.413-.34a40.158,40.158,0,0,0-10.988-10.565c-.068-.045-.146-.077-.213-.123-.1-.069-.23-.139-.157-.289.082-.17.217-.055.314-.019.823.307,1.643.624,2.463.937l.154.014Z" transform="translate(-362.535)" fill="#281b13"/>
    <path id="Path_447" data-name="Path 447" d="M528.1-124.708a40.189,40.189,0,0,1,2.506-5.036c.11-.2.288-.368.05-.649a10.122,10.122,0,0,1-2.246-5.625,2.153,2.153,0,0,0-.089-.279l-1.012,1.454a6.36,6.36,0,0,1,.01-3.216,10.552,10.552,0,0,1,4.059-6.542c3.639-2.511,9.3-2.245,12.244,1.923a7.635,7.635,0,0,1,.859,1.628,1.433,1.433,0,0,0,1.166.967c.626.1,1.251.226,1.869.371.148.035.44-.036.42.237s-.281.193-.447.192a15.029,15.029,0,0,0-3.231.39,16.881,16.881,0,0,0-7.754,4.366c.854-.341,1.572-.636,2.3-.912.185-.071.437-.324.576-.007.107.244-.211.309-.362.413a42.773,42.773,0,0,0-10.027,9.393c-.235.309-.476.614-.72.917C528.249-124.7,528.19-124.714,528.1-124.708Z" transform="translate(-134.264 -0.101)" fill="#281b13"/>
    <path id="Path_448" data-name="Path 448" d="M689.87,169.709c-3.587,3.786-12.493,3.8-16.784-.054a8.155,8.155,0,0,1,2.35.355,20.931,20.931,0,0,0,3.045.742,1.669,1.669,0,0,0,2.008-1.435c.046-.3-.012-.442-.33-.516a12.157,12.157,0,0,1-1.651-.484,4.4,4.4,0,0,1-2.144-1.689,1.034,1.034,0,0,1,.51-1.728,7.968,7.968,0,0,1,3.313-.58c1.581.042,3.161.126,4.741.206a2.8,2.8,0,0,1,.778.161c1.539.542,1.715,1.333.57,2.521a5.6,5.6,0,0,1-3.094,1.525c-.515.1-.657.278-.482.8a1.534,1.534,0,0,0,1.671,1.238,11.893,11.893,0,0,0,3.336-.807A3.377,3.377,0,0,1,689.87,169.709Z" transform="translate(-262.233 -272.311)" fill="#281b13"/>
    <path id="Path_449" data-name="Path 449" d="M496.339,192.653l-.014,0Z" transform="translate(-107.284 -297.147)" fill="#fefefd"/>
    <path id="Path_450" data-name="Path 450" d="M653.381,278.044c.09.035.088.1.064.178l-.153-.1C653.321,278.1,653.35,278.069,653.381,278.044Z" transform="translate(-244.881 -372.004)" fill="#fefefd"/>
    <path id="Path_451" data-name="Path 451" d="M681.448,107.167l-.081.064.006-.078.085.03Z" transform="translate(-269.492 -222.199)" fill="#fefefd"/>
    <path id="Path_452" data-name="Path 452" d="M876.529-54.221l.051.146-.154-.014Z" transform="translate(-440.48 -80.74)" fill="#fefefd"/>
  </g>
</svg>
