<svg xmlns="http://www.w3.org/2000/svg" xmlns:xlink="http://www.w3.org/1999/xlink" width="393" height="143.333" viewBox="0 0 393 143.333">
  <defs>
    <linearGradient id="linear-gradient" x1="1" y1="0.5" x2="0" y2="0.5" gradientUnits="objectBoundingBox">
      <stop offset="0" stop-color="#82d84e"/>
      <stop offset="1" stop-color="#0ead69"/>
    </linearGradient>
    <linearGradient id="linear-gradient-2" x1="1" y1="0.475" x2="0" y2="0.483" gradientUnits="objectBoundingBox">
      <stop offset="0" stop-color="#f0b41d"/>
      <stop offset="1" stop-color="#f19f22"/>
    </linearGradient>
    <filter id="Mask" x="0" y="0" width="393" height="143.333" filterUnits="userSpaceOnUse">
      <feOffset dy="3" input="SourceAlpha"/>
      <feGaussianBlur stdDeviation="3" result="blur"/>
      <feFlood flood-opacity="0.161"/>
      <feComposite operator="in" in2="blur"/>
      <feComposite in="SourceGraphic"/>
    </filter>
    <clipPath id="clip-path">
      <path id="Mask-2" data-name="Mask" d="M0,0H375V127.333H0Z" fill="url(#linear-gradient)"/>
    </clipPath>
    <linearGradient id="linear-gradient-3" x1="0.5" x2="0.5" y2="1" gradientUnits="objectBoundingBox">
      <stop offset="0" stop-color="#fff" stop-opacity="0"/>
      <stop offset="1" stop-color="#fff"/>
    </linearGradient>
  </defs>
  <g id="bg" transform="translate(9 5)">
    <g transform="matrix(1, 0, 0, 1, -9, -5)" filter="url(#Mask)">
      <path id="Mask-3" data-name="Mask" d="M0,0H375V125.333H0Z" transform="translate(9 6)" fill="url(#linear-gradient-2)"/>
    </g>
    <g id="bg-2" data-name="bg" clip-path="url(#clip-path)">
      <g id="Group_13" data-name="Group 13" transform="translate(-164.312 -162.634)" opacity="0.4">
        <path id="Fill_1" data-name="Fill 1" d="M7.826,208.012-32.9,137.469l148.04-132.5L303.906-56.988l40.729,70.544-148.041,132.5Z" transform="translate(340.455 0) rotate(30)" opacity="0.21" fill="url(#linear-gradient-3)"/>
        <path id="Fill_4" data-name="Fill 4" d="M9.1,241.9l-47.364-82.036L133.9,5.778,353.419-66.273l47.363,82.037L228.624,169.85Z" transform="translate(252.737 14.068) rotate(30)" opacity="0.21" fill="url(#linear-gradient-3)"/>
        <path id="Fill_7" data-name="Fill 7" d="M45.59,435.343,0,217.672,45.59,0h91.181l45.591,217.672L136.771,435.343Z" transform="translate(435.343 62.043) rotate(90)" opacity="0.55" fill="url(#linear-gradient-3)"/>
        <path id="Fill_10" data-name="Fill 10" d="M38.141,364.2,0,182.1,38.141,0h76.281l38.141,182.1L114.422,364.2Z" transform="translate(529.768 83.473) rotate(90)" opacity="0.54" fill="url(#linear-gradient-3)"/>
      </g>
    </g>
  </g>
</svg>
