<svg xmlns="http://www.w3.org/2000/svg" xmlns:xlink="http://www.w3.org/1999/xlink" width="20" height="20" viewBox="0 0 20 20">
  <defs>
    <clipPath id="clip-path">
      <path id="Path_522" data-name="Path 522" d="M0,0H20V20H0Z" transform="translate(292 14)" fill="#fff" stroke="#707070" stroke-width="1"/>
    </clipPath>
  </defs>
  <g id="Mask_Group_2" data-name="Mask Group 2" transform="translate(-292 -14)" clip-path="url(#clip-path)">
    <g id="code-scanning" transform="translate(291.091 13.091)">
      <path id="Path_523" data-name="Path 523" d="M15.455,14.545a.91.91,0,0,1-.909.909H7.273a.91.91,0,0,1-.909-.909.909.909,0,0,0-1.818,0,2.73,2.73,0,0,0,2.727,2.727h7.273a2.73,2.73,0,0,0,2.727-2.727.909.909,0,1,0-1.818,0Z" fill="#f19f22"/>
      <path id="Path_524" data-name="Path 524" d="M14.545,4.545H7.273A2.73,2.73,0,0,0,4.545,7.273a.909.909,0,0,0,1.818,0,.91.91,0,0,1,.909-.909h7.273a.91.91,0,0,1,.909.909.909.909,0,0,0,1.818,0A2.73,2.73,0,0,0,14.545,4.545Z" fill="#f19f22"/>
      <path id="Path_525" data-name="Path 525" d="M1.818,5.455a.909.909,0,0,0,.909-.909V3.636a.91.91,0,0,1,.909-.909h.909a.909.909,0,1,0,0-1.818H3.636A2.73,2.73,0,0,0,.909,3.636v.909A.909.909,0,0,0,1.818,5.455Z" fill="#f19f22"/>
      <path id="Path_526" data-name="Path 526" d="M18.182.909h-.909a.909.909,0,1,0,0,1.818h.909a.91.91,0,0,1,.909.909v.909a.909.909,0,1,0,1.818,0V3.636A2.73,2.73,0,0,0,18.182.909Z" fill="#f19f22"/>
      <path id="Path_527" data-name="Path 527" d="M3.636,20.909h.909a.909.909,0,1,0,0-1.818H3.636a.91.91,0,0,1-.909-.909v-.909a.909.909,0,1,0-1.818,0v.909A2.73,2.73,0,0,0,3.636,20.909Z" fill="#f19f22"/>
      <path id="Path_528" data-name="Path 528" d="M20,16.364a.909.909,0,0,0-.909.909v.909a.91.91,0,0,1-.909.909h-.909a.909.909,0,1,0,0,1.818h.909a2.73,2.73,0,0,0,2.727-2.727v-.909A.909.909,0,0,0,20,16.364Z" fill="#f19f22"/>
      <path id="Path_529" data-name="Path 529" d="M19.091,10.909A.909.909,0,0,0,18.182,10H3.636a.909.909,0,0,0,0,1.818H18.182A.909.909,0,0,0,19.091,10.909Z" fill="#f19f22"/>
    </g>
  </g>
</svg>
