<svg xmlns="http://www.w3.org/2000/svg" xmlns:xlink="http://www.w3.org/1999/xlink" width="375" height="355" viewBox="0 0 375 355">
  <defs>
    <linearGradient id="linear-gradient" y1="0.5" x2="1" y2="0.5" gradientUnits="objectBoundingBox">
      <stop offset="0" stop-color="#f0b81c" stop-opacity="0.631"/>
      <stop offset="1" stop-color="#f0b41d" stop-opacity="0.839"/>
    </linearGradient>
    <linearGradient id="linear-gradient-2" x1="-0.353" y1="-0.305" x2="1.228" y2="1.187" gradientUnits="objectBoundingBox">
      <stop offset="0" stop-color="#f0b41d"/>
      <stop offset="0.191" stop-color="#f0aa1f"/>
      <stop offset="0.503" stop-color="#f0a121"/>
      <stop offset="1" stop-color="#f19f22"/>
    </linearGradient>
    <linearGradient id="linear-gradient-3" x1="-0.5" y1="-0.061" x2="2.401" y2="1.564" gradientUnits="objectBoundingBox">
      <stop offset="0" stop-color="#fff"/>
      <stop offset="0.012" stop-color="#f7f9fb"/>
      <stop offset="0.096" stop-color="#cbd6e8"/>
      <stop offset="0.186" stop-color="#a4b6d6"/>
      <stop offset="0.281" stop-color="#839cc8"/>
      <stop offset="0.383" stop-color="#6887bc"/>
      <stop offset="0.493" stop-color="#5376b3"/>
      <stop offset="0.617" stop-color="#456aac"/>
      <stop offset="0.765" stop-color="#3c64a9"/>
      <stop offset="1" stop-color="#3a62a8"/>
    </linearGradient>
    <clipPath id="clip-path">
      <path id="SVGID" d="M1828.437-68.629V141.555a4.24,4.24,0,0,1-4.237,4.226H1694.771a4.239,4.239,0,0,1-4.236-4.226V-68.629a4.248,4.248,0,0,1,4.236-4.237H1824.2A4.249,4.249,0,0,1,1828.437-68.629Z" transform="translate(-1690.535 72.866)" fill="none"/>
    </clipPath>
    <linearGradient id="linear-gradient-4" x1="0" y1="0.5" x2="1" y2="0.5" xlink:href="#linear-gradient-2"/>
  </defs>
  <g id="Group_48" data-name="Group 48" transform="translate(-1385.994 131.163)">
    <g id="Group_7" data-name="Group 7" transform="translate(1385.994 -132.163)">
      <g id="Group_1" data-name="Group 1" opacity="0.32">
        <path id="Path_25" data-name="Path 25" d="M1631.061-99.051c43.266-15.375,86.7-25.41,129.933-32.112V133.515c-14.505,3.658-22,2.322-43.824,9.327-75.824,26.946-125.634,53.046-126.1,53.422a127.21,127.21,0,0,1-79.371,27.573c-36.435,0-72.555-15.354-97.4-44.982-43.874-52.353-35.87-129.43,17.882-172.162C1440.346.2,1515.283-57.914,1631.061-99.051Z" transform="translate(-1385.993 132.163)" fill="url(#linear-gradient)"/>
      </g>
      <g id="Group_2" data-name="Group 2" transform="translate(30.673 179.646)" opacity="0.26">
        <path id="Path_26" data-name="Path 26" d="M1461.245,171.756a2.117,2.117,0,1,1-2.117-2.117A2.117,2.117,0,0,1,1461.245,171.756Z" transform="translate(-1445.287 -169.639)" fill="#fff"/>
        <path id="Path_27" data-name="Path 27" d="M1501.886,171.756a2.117,2.117,0,1,1-2.116-2.117A2.117,2.117,0,0,1,1501.886,171.756Z" transform="translate(-1461.666 -169.639)" fill="#fff"/>
        <path id="Path_28" data-name="Path 28" d="M1542.528,171.756a2.117,2.117,0,1,1-2.117-2.117A2.117,2.117,0,0,1,1542.528,171.756Z" transform="translate(-1478.045 -169.639)" fill="#fff"/>
        <path id="Path_29" data-name="Path 29" d="M1583.169,171.756a2.117,2.117,0,1,1-2.117-2.117A2.117,2.117,0,0,1,1583.169,171.756Z" transform="translate(-1494.424 -169.639)" fill="#fff"/>
        <path id="Path_30" data-name="Path 30" d="M1623.81,171.756a2.117,2.117,0,1,1-2.117-2.117A2.117,2.117,0,0,1,1623.81,171.756Z" transform="translate(-1510.802 -169.639)" fill="#fff"/>
        <path id="Path_31" data-name="Path 31" d="M1664.451,171.756a2.117,2.117,0,1,1-2.117-2.117A2.117,2.117,0,0,1,1664.451,171.756Z" transform="translate(-1527.181 -169.639)" fill="#fff"/>
        <path id="Path_32" data-name="Path 32" d="M1705.092,171.756a2.117,2.117,0,1,1-2.117-2.117A2.117,2.117,0,0,1,1705.092,171.756Z" transform="translate(-1543.56 -169.639)" fill="#fff"/>
        <path id="Path_33" data-name="Path 33" d="M1745.733,171.756a2.117,2.117,0,1,1-2.117-2.117A2.117,2.117,0,0,1,1745.733,171.756Z" transform="translate(-1559.939 -169.639)" fill="#fff"/>
        <path id="Path_34" data-name="Path 34" d="M1441.607,187.03a2.117,2.117,0,1,1-2.117-2.116A2.117,2.117,0,0,1,1441.607,187.03Z" transform="translate(-1437.373 -175.795)" fill="#fff"/>
        <path id="Path_35" data-name="Path 35" d="M1482.247,187.03a2.117,2.117,0,1,1-2.116-2.116A2.116,2.116,0,0,1,1482.247,187.03Z" transform="translate(-1453.752 -175.795)" fill="#fff"/>
        <path id="Path_36" data-name="Path 36" d="M1522.889,187.03a2.117,2.117,0,1,1-2.117-2.116A2.117,2.117,0,0,1,1522.889,187.03Z" transform="translate(-1470.13 -175.795)" fill="#fff"/>
        <path id="Path_37" data-name="Path 37" d="M1563.53,187.03a2.117,2.117,0,1,1-2.117-2.116A2.117,2.117,0,0,1,1563.53,187.03Z" transform="translate(-1486.509 -175.795)" fill="#fff"/>
        <path id="Path_38" data-name="Path 38" d="M1604.171,187.03a2.117,2.117,0,1,1-2.117-2.116A2.117,2.117,0,0,1,1604.171,187.03Z" transform="translate(-1502.888 -175.795)" fill="#fff"/>
        <path id="Path_39" data-name="Path 39" d="M1644.812,187.03a2.117,2.117,0,1,1-2.116-2.116A2.116,2.116,0,0,1,1644.812,187.03Z" transform="translate(-1519.267 -175.795)" fill="#fff"/>
        <path id="Path_40" data-name="Path 40" d="M1685.453,187.03a2.117,2.117,0,1,1-2.116-2.116A2.116,2.116,0,0,1,1685.453,187.03Z" transform="translate(-1535.646 -175.795)" fill="#fff"/>
        <path id="Path_41" data-name="Path 41" d="M1726.095,187.03a2.117,2.117,0,1,1-2.117-2.116A2.117,2.117,0,0,1,1726.095,187.03Z" transform="translate(-1552.024 -175.795)" fill="#fff"/>
        <path id="Path_42" data-name="Path 42" d="M1461.245,203.441a2.117,2.117,0,1,1-2.117-2.117A2.117,2.117,0,0,1,1461.245,203.441Z" transform="translate(-1445.287 -182.408)" fill="#fff"/>
        <path id="Path_43" data-name="Path 43" d="M1501.886,203.441a2.117,2.117,0,1,1-2.116-2.117A2.116,2.116,0,0,1,1501.886,203.441Z" transform="translate(-1461.666 -182.408)" fill="#fff"/>
        <path id="Path_44" data-name="Path 44" d="M1542.528,203.441a2.117,2.117,0,1,1-2.117-2.117A2.117,2.117,0,0,1,1542.528,203.441Z" transform="translate(-1478.045 -182.408)" fill="#fff"/>
        <path id="Path_45" data-name="Path 45" d="M1583.169,203.441a2.117,2.117,0,1,1-2.117-2.117A2.117,2.117,0,0,1,1583.169,203.441Z" transform="translate(-1494.424 -182.408)" fill="#fff"/>
        <path id="Path_46" data-name="Path 46" d="M1623.81,203.441a2.117,2.117,0,1,1-2.117-2.117A2.117,2.117,0,0,1,1623.81,203.441Z" transform="translate(-1510.802 -182.408)" fill="#fff"/>
        <path id="Path_47" data-name="Path 47" d="M1664.451,203.441a2.117,2.117,0,1,1-2.117-2.117A2.117,2.117,0,0,1,1664.451,203.441Z" transform="translate(-1527.181 -182.408)" fill="#fff"/>
        <path id="Path_48" data-name="Path 48" d="M1705.092,203.441a2.117,2.117,0,1,1-2.117-2.117A2.117,2.117,0,0,1,1705.092,203.441Z" transform="translate(-1543.56 -182.408)" fill="#fff"/>
        <path id="Path_49" data-name="Path 49" d="M1745.733,203.441a2.117,2.117,0,1,1-2.117-2.117A2.116,2.116,0,0,1,1745.733,203.441Z" transform="translate(-1559.939 -182.408)" fill="#fff"/>
        <path id="Path_50" data-name="Path 50" d="M1441.607,218.716a2.117,2.117,0,1,1-2.117-2.117A2.117,2.117,0,0,1,1441.607,218.716Z" transform="translate(-1437.373 -188.564)" fill="#fff"/>
        <path id="Path_51" data-name="Path 51" d="M1482.247,218.716a2.117,2.117,0,1,1-2.116-2.117A2.117,2.117,0,0,1,1482.247,218.716Z" transform="translate(-1453.752 -188.564)" fill="#fff"/>
        <path id="Path_52" data-name="Path 52" d="M1522.889,218.716a2.117,2.117,0,1,1-2.117-2.117A2.117,2.117,0,0,1,1522.889,218.716Z" transform="translate(-1470.13 -188.564)" fill="#fff"/>
        <path id="Path_53" data-name="Path 53" d="M1563.53,218.716a2.117,2.117,0,1,1-2.117-2.117A2.117,2.117,0,0,1,1563.53,218.716Z" transform="translate(-1486.509 -188.564)" fill="#fff"/>
        <path id="Path_54" data-name="Path 54" d="M1604.171,218.716a2.117,2.117,0,1,1-2.117-2.117A2.117,2.117,0,0,1,1604.171,218.716Z" transform="translate(-1502.888 -188.564)" fill="#fff"/>
        <circle id="Ellipse_2" data-name="Ellipse 2" cx="2.117" cy="2.117" r="2.117" transform="translate(121.312 28.035)" fill="#fff"/>
        <path id="Path_55" data-name="Path 55" d="M1685.453,218.716a2.117,2.117,0,1,1-2.116-2.117A2.117,2.117,0,0,1,1685.453,218.716Z" transform="translate(-1535.646 -188.564)" fill="#fff"/>
        <path id="Path_56" data-name="Path 56" d="M1726.095,218.716a2.117,2.117,0,1,1-2.117-2.117A2.117,2.117,0,0,1,1726.095,218.716Z" transform="translate(-1552.024 -188.564)" fill="#fff"/>
        <path id="Path_57" data-name="Path 57" d="M1461.245,235.127a2.117,2.117,0,1,1-2.117-2.117A2.117,2.117,0,0,1,1461.245,235.127Z" transform="translate(-1445.287 -195.178)" fill="#fff"/>
        <path id="Path_58" data-name="Path 58" d="M1501.886,235.127a2.117,2.117,0,1,1-2.116-2.117A2.117,2.117,0,0,1,1501.886,235.127Z" transform="translate(-1461.666 -195.178)" fill="#fff"/>
        <path id="Path_59" data-name="Path 59" d="M1542.528,235.127a2.117,2.117,0,1,1-2.117-2.117A2.117,2.117,0,0,1,1542.528,235.127Z" transform="translate(-1478.045 -195.178)" fill="#fff"/>
        <path id="Path_60" data-name="Path 60" d="M1583.169,235.127a2.117,2.117,0,1,1-2.117-2.117A2.117,2.117,0,0,1,1583.169,235.127Z" transform="translate(-1494.424 -195.178)" fill="#fff"/>
        <path id="Path_61" data-name="Path 61" d="M1623.81,235.127a2.117,2.117,0,1,1-2.117-2.117A2.117,2.117,0,0,1,1623.81,235.127Z" transform="translate(-1510.802 -195.178)" fill="#fff"/>
        <path id="Path_62" data-name="Path 62" d="M1664.451,235.127a2.117,2.117,0,1,1-2.117-2.117A2.117,2.117,0,0,1,1664.451,235.127Z" transform="translate(-1527.181 -195.178)" fill="#fff"/>
        <path id="Path_63" data-name="Path 63" d="M1705.092,235.127a2.117,2.117,0,1,1-2.117-2.117A2.117,2.117,0,0,1,1705.092,235.127Z" transform="translate(-1543.56 -195.178)" fill="#fff"/>
        <path id="Path_64" data-name="Path 64" d="M1745.733,235.127a2.117,2.117,0,1,1-2.117-2.117A2.117,2.117,0,0,1,1745.733,235.127Z" transform="translate(-1559.939 -195.178)" fill="#fff"/>
        <path id="Path_65" data-name="Path 65" d="M1441.607,250.4a2.117,2.117,0,1,1-2.117-2.116A2.117,2.117,0,0,1,1441.607,250.4Z" transform="translate(-1437.373 -201.334)" fill="#fff"/>
        <path id="Path_66" data-name="Path 66" d="M1482.247,250.4a2.117,2.117,0,1,1-2.116-2.116A2.116,2.116,0,0,1,1482.247,250.4Z" transform="translate(-1453.752 -201.334)" fill="#fff"/>
        <path id="Path_67" data-name="Path 67" d="M1522.889,250.4a2.117,2.117,0,1,1-2.117-2.116A2.117,2.117,0,0,1,1522.889,250.4Z" transform="translate(-1470.13 -201.334)" fill="#fff"/>
        <path id="Path_68" data-name="Path 68" d="M1563.53,250.4a2.117,2.117,0,1,1-2.117-2.116A2.117,2.117,0,0,1,1563.53,250.4Z" transform="translate(-1486.509 -201.334)" fill="#fff"/>
        <path id="Path_69" data-name="Path 69" d="M1604.171,250.4a2.117,2.117,0,1,1-2.117-2.116A2.117,2.117,0,0,1,1604.171,250.4Z" transform="translate(-1502.888 -201.334)" fill="#fff"/>
        <path id="Path_70" data-name="Path 70" d="M1644.812,250.4a2.117,2.117,0,1,1-2.116-2.116A2.116,2.116,0,0,1,1644.812,250.4Z" transform="translate(-1519.267 -201.334)" fill="#fff"/>
        <path id="Path_71" data-name="Path 71" d="M1685.453,250.4a2.117,2.117,0,1,1-2.116-2.116A2.116,2.116,0,0,1,1685.453,250.4Z" transform="translate(-1535.646 -201.334)" fill="#fff"/>
        <path id="Path_72" data-name="Path 72" d="M1726.095,250.4a2.117,2.117,0,1,1-2.117-2.116A2.117,2.117,0,0,1,1726.095,250.4Z" transform="translate(-1552.024 -201.334)" fill="#fff"/>
        <path id="Path_73" data-name="Path 73" d="M1461.245,266.812a2.117,2.117,0,1,1-2.117-2.116A2.117,2.117,0,0,1,1461.245,266.812Z" transform="translate(-1445.287 -207.948)" fill="#fff"/>
        <path id="Path_74" data-name="Path 74" d="M1501.886,266.812a2.117,2.117,0,1,1-2.116-2.116A2.116,2.116,0,0,1,1501.886,266.812Z" transform="translate(-1461.666 -207.948)" fill="#fff"/>
        <path id="Path_75" data-name="Path 75" d="M1542.528,266.812a2.117,2.117,0,1,1-2.117-2.116A2.117,2.117,0,0,1,1542.528,266.812Z" transform="translate(-1478.045 -207.948)" fill="#fff"/>
        <path id="Path_76" data-name="Path 76" d="M1583.169,266.812a2.117,2.117,0,1,1-2.117-2.116A2.117,2.117,0,0,1,1583.169,266.812Z" transform="translate(-1494.424 -207.948)" fill="#fff"/>
        <path id="Path_77" data-name="Path 77" d="M1623.81,266.812a2.117,2.117,0,1,1-2.117-2.116A2.117,2.117,0,0,1,1623.81,266.812Z" transform="translate(-1510.802 -207.948)" fill="#fff"/>
        <path id="Path_78" data-name="Path 78" d="M1664.451,266.812a2.117,2.117,0,1,1-2.117-2.116A2.117,2.117,0,0,1,1664.451,266.812Z" transform="translate(-1527.181 -207.948)" fill="#fff"/>
        <path id="Path_79" data-name="Path 79" d="M1705.092,266.812a2.117,2.117,0,1,1-2.117-2.116A2.116,2.116,0,0,1,1705.092,266.812Z" transform="translate(-1543.56 -207.948)" fill="#fff"/>
        <path id="Path_80" data-name="Path 80" d="M1745.733,266.812a2.117,2.117,0,1,1-2.117-2.116A2.116,2.116,0,0,1,1745.733,266.812Z" transform="translate(-1559.939 -207.948)" fill="#fff"/>
        <path id="Path_81" data-name="Path 81" d="M1441.607,282.087a2.117,2.117,0,1,1-2.117-2.117A2.117,2.117,0,0,1,1441.607,282.087Z" transform="translate(-1437.373 -214.103)" fill="#fff"/>
        <path id="Path_82" data-name="Path 82" d="M1482.247,282.087a2.117,2.117,0,1,1-2.116-2.117A2.117,2.117,0,0,1,1482.247,282.087Z" transform="translate(-1453.752 -214.103)" fill="#fff"/>
        <path id="Path_83" data-name="Path 83" d="M1522.889,282.087a2.117,2.117,0,1,1-2.117-2.117A2.117,2.117,0,0,1,1522.889,282.087Z" transform="translate(-1470.13 -214.103)" fill="#fff"/>
        <path id="Path_84" data-name="Path 84" d="M1563.53,282.087a2.117,2.117,0,1,1-2.117-2.117A2.117,2.117,0,0,1,1563.53,282.087Z" transform="translate(-1486.509 -214.103)" fill="#fff"/>
        <path id="Path_85" data-name="Path 85" d="M1604.171,282.087a2.117,2.117,0,1,1-2.117-2.117A2.117,2.117,0,0,1,1604.171,282.087Z" transform="translate(-1502.888 -214.103)" fill="#fff"/>
        <path id="Path_86" data-name="Path 86" d="M1644.812,282.087a2.117,2.117,0,1,1-2.116-2.117A2.117,2.117,0,0,1,1644.812,282.087Z" transform="translate(-1519.267 -214.103)" fill="#fff"/>
        <path id="Path_87" data-name="Path 87" d="M1685.453,282.087a2.117,2.117,0,1,1-2.116-2.117A2.117,2.117,0,0,1,1685.453,282.087Z" transform="translate(-1535.646 -214.103)" fill="#fff"/>
        <path id="Path_88" data-name="Path 88" d="M1726.095,282.087a2.117,2.117,0,1,1-2.117-2.117A2.117,2.117,0,0,1,1726.095,282.087Z" transform="translate(-1552.024 -214.103)" fill="#fff"/>
      </g>
      <g id="Group_6" data-name="Group 6" transform="translate(38.055 199.643)">
        <g id="Group_3" data-name="Group 3" transform="translate(0 26.201)">
          <path id="Path_89" data-name="Path 89" d="M1471.6,313.342s8.2-28.785,1.275-41.721-23.138-24.413-23.138-24.413,9.838,15.668,6.559,25.324-10.02,31.883,0,40.81Z" transform="translate(-1449.739 -247.209)" fill="#f0b41d"/>
          <path id="Path_90" data-name="Path 90" d="M1470.087,276.208a56.825,56.825,0,0,1,2.633,11.96,61.458,61.458,0,0,1,.3,12.2c-.276,4.048-1.31,8.03-1.7,12.155-.2,2.051-.367,4.112-.391,6.182-.012,1.034.022,2.073.095,3.108a8.1,8.1,0,0,0,.717,3.051l.1-.081a9.083,9.083,0,0,1-.234-2.987c.036-1.016.1-2.03.212-3.044.21-2.026.438-4.053.768-6.07l.878-6.067.367-3.085c.1-1.032.14-2.067.212-3.1a62.253,62.253,0,0,0-.686-12.354,57.177,57.177,0,0,0-3.147-11.921Z" transform="translate(-1457.939 -258.876)" fill="#fff"/>
        </g>
        <g id="Group_4" data-name="Group 4" transform="translate(18.239 0)">
          <path id="Path_91" data-name="Path 91" d="M1485.949,295.655s-11.446-40.19-1.781-58.25,32.3-34.085,32.3-34.085-13.736,21.876-9.157,35.357,13.99,44.514,0,56.978Z" transform="translate(-1480.29 -203.32)" fill="#f19f22"/>
          <path id="Path_92" data-name="Path 92" d="M1508.7,243.808a79.357,79.357,0,0,0-3.676,16.7,85.717,85.717,0,0,0-.418,17.04c.385,5.652,1.829,11.211,2.378,16.971.281,2.864.512,5.742.546,8.631.018,1.444-.031,2.894-.131,4.339a11.332,11.332,0,0,1-1,4.259l-.138-.112a12.736,12.736,0,0,0,.327-4.17c-.051-1.418-.137-2.835-.3-4.251-.294-2.829-.611-5.658-1.073-8.475L1504,286.267l-.512-4.307c-.135-1.44-.2-2.887-.3-4.326a86.882,86.882,0,0,1,.957-17.249,79.928,79.928,0,0,1,4.394-16.643Z" transform="translate(-1489.481 -219.61)" fill="#fff"/>
        </g>
        <g id="Group_5" data-name="Group 5" transform="translate(7.812 77.449)">
          <path id="Path_93" data-name="Path 93" d="M1491.444,348.852s11.655-14.7,6.335-15.709S1490.685,339.731,1491.444,348.852Z" transform="translate(-1474.291 -333.053)" fill="#261910"/>
          <path id="Path_94" data-name="Path 94" d="M1479.978,349.036s-7.347-19.763-15.455-14.7S1479.978,349.036,1479.978,349.036Z" transform="translate(-1462.825 -333.237)" fill="#261910"/>
          <path id="Path_95" data-name="Path 95" d="M1491.558,353.753s27.111-3.294,20.27-7.6S1491.558,353.753,1491.558,353.753Z" transform="translate(-1474.405 -337.953)" fill="#261910"/>
        </g>
      </g>
    </g>
    <g id="Group_11" data-name="Group 11" transform="translate(1563.161 -126.353)">
      <g id="Group_10" data-name="Group 10">
        <g id="Group_8" data-name="Group 8" transform="translate(37.086 6.37)">
          <path id="Path_96" data-name="Path 96" d="M1829.367-102.27c0,5.241-22.261,9.49-49.722,9.49s-49.723-4.249-49.723-9.49,22.262-9.491,49.723-9.491S1829.367-107.512,1829.367-102.27Z" transform="translate(-1729.922 111.761)" fill="#261910"/>
        </g>
        <path id="Path_97" data-name="Path 97" d="M1813.442-122.431H1686.966A19.221,19.221,0,0,0,1667.8-103.27V142.118a19.2,19.2,0,0,0,19.166,19.146h75.161c20.511,0,34.129-5.886,55.053-13.517q7.731-2.815,15.428-5.295V-103.27A19.217,19.217,0,0,0,1813.442-122.431Zm-97.082,10.692h67.695a4.5,4.5,0,0,1,4.5,4.5,4.5,4.5,0,0,1-4.5,4.5H1716.36a4.5,4.5,0,0,1-4.508-4.5A4.5,4.5,0,0,1,1716.36-111.739Z" transform="translate(-1667.8 122.431)" fill="url(#linear-gradient-2)"/>
        <path id="Path_98" data-name="Path 98" d="M1828.437-68.629V141.555a4.24,4.24,0,0,1-4.237,4.226H1694.771a4.239,4.239,0,0,1-4.236-4.226V-68.629a4.248,4.248,0,0,1,4.236-4.237H1824.2A4.249,4.249,0,0,1,1828.437-68.629Z" transform="translate(-1676.962 102.456)" fill="#fff"/>
        <g id="Group_9" data-name="Group 9" transform="translate(14.062 30.668)">
          <path id="Path_99" data-name="Path 99" d="M1827.321-71.06,1691.355,144.217a4.231,4.231,0,0,0,3.743,2.3h129.437a4.249,4.249,0,0,0,4.237-4.236V-67.9A4.213,4.213,0,0,0,1827.321-71.06Z" transform="translate(-1691.355 71.06)" opacity="0.1" fill="url(#linear-gradient-3)"/>
        </g>
      </g>
    </g>
    <g id="Group_27" data-name="Group 27" transform="translate(1576.733 -96.763)">
      <g id="Group_26" data-name="Group 26" clip-path="url(#clip-path)">
        <g id="Group_24" data-name="Group 24" transform="translate(8.016 45.718)">
          <g id="Group_13" data-name="Group 13" transform="translate(13.421 28.328)">
            <circle id="Ellipse_3" data-name="Ellipse 3" cx="47.276" cy="47.276" r="47.276" transform="translate(0 2.336) rotate(-1.416)" fill="url(#linear-gradient-4)"/>
            <g id="Group_12" data-name="Group 12" transform="translate(3.098 3.072)">
              <path id="Path_100" data-name="Path 100" d="M1744.342,134.243a45.279,45.279,0,0,0,37.975,20.219c1.114-.005,2.208-.051,3.3-.135a46.027,46.027,0,0,0,4.7-.615,44.689,44.689,0,0,0,14.294-5.236A45.338,45.338,0,0,0,1811.8,74.9c.389,8.661-.609,25.863-12.022,41.5a61.842,61.842,0,0,1-7.409,8.4c-7,6.628-15.729,9.708-24.634,10.7A78.849,78.849,0,0,1,1744.342,134.243Z" transform="translate(-1736.754 -63.803)" fill="#a58671"/>
              <path id="Path_101" data-name="Path 101" d="M1787.243,117.316c-13.31,12.6-32.824,12.357-48.025,9.435a45.332,45.332,0,0,1,67.46-59.34C1807.13,77.657,1805.656,99.879,1787.243,117.316Z" transform="translate(-1731.632 -56.312)" fill="#634a39"/>
            </g>
          </g>
          <g id="Group_23" data-name="Group 23" transform="translate(0 0)">
            <path id="Path_102" data-name="Path 102" d="M1745.307,94.686l11.474.547s-16.513,29.817-34.9,39.44a25.557,25.557,0,0,1-15.423,2.642c-1.325-.149-2.812-2.13-2.44-3.413.737-2.549,4.273-7.237,11.2-6.694,0,0-3.3-1.9-2.73-2.834s3.535-.234,5.841,1.08C1724.421,128.912,1744.54,101.236,1745.307,94.686Z" transform="translate(-1703.963 -40.377)" fill="#f9a6a6"/>
            <g id="Group_22" data-name="Group 22" transform="translate(32.109)">
              <g id="Group_14" data-name="Group 14" transform="translate(4.984 33.768)">
                <path id="Path_103" data-name="Path 103" d="M1779.157,61.873c-6.21,3.522-11.209,8.323-13.06,23.29l10.781,6.736s10.982-16.121,10.23-24.143C1786.164,57.664,1782.225,60.133,1779.157,61.873Z" transform="translate(-1766.097 -60.28)" fill="#ffde6e"/>
              </g>
              <g id="Group_20" data-name="Group 20" transform="translate(10.08)">
                <g id="Group_19" data-name="Group 19">
                  <g id="Group_16" data-name="Group 16" transform="translate(0 25.781)">
                    <g id="Group_15" data-name="Group 15">
                      <path id="Path_104" data-name="Path 104" d="M1817.272,176.949a45.718,45.718,0,0,1-22.265,6.421c.2-2.227.393-3.8.412-3.987l-.135.357-1.368,3.646c-1.343,0-2.675-.051-3.988-.161a45.622,45.622,0,0,1-15.3-4.018c3.55-9.77,7.653-19.907,9.352-24.05.508-1.232.8-1.936.8-1.936a80.053,80.053,0,0,1,14.2-5.6c1.021-.282,2.061-.543,3.1-.765,5.708-1.212,11.546-1.322,15.291,1.6a8.689,8.689,0,0,1,2.837,5.561C1821.29,160.059,1819.479,169.09,1817.272,176.949Z" transform="translate(-1774.633 -86.86)" fill="#f0b41d"/>
                      <path id="Path_105" data-name="Path 105" d="M1820.25,92.665l2.8,24.566s-24.253,6.36-33.68,3.3c-11.983-3.892-8.84-45.158-7.17-51.409a29.814,29.814,0,0,1,5.868-10.941l2.956-.558,13.274-2.494s.247-.035.674-.06a11.6,11.6,0,0,1,10.644,5.38C1817.051,62.77,1820.25,92.665,1820.25,92.665Z" transform="translate(-1777.016 -50.185)" fill="url(#linear-gradient-4)"/>
                      <path id="Path_106" data-name="Path 106" d="M1811.33,55.077l-1.086,2.418s-1.7,6.205-7.256,6.125c-4.188-.065-5.783-4.1-5.783-4.1l-.885-1.649,1.061-.236,13.275-2.494S1810.9,55.1,1811.33,55.077Z" transform="translate(-1783.373 -50.196)" fill="#ffde6e"/>
                      <path id="Path_107" data-name="Path 107" d="M1797.16,47.785l.385,7.031s1.591,4.039,5.783,4.1c5.55.081,7.252-6.12,7.252-6.12l1.18-5.895Z" transform="translate(-1783.712 -46.901)" fill="#f9a6a6"/>
                      <path id="Path_108" data-name="Path 108" d="M1797.16,47.785s2.465,5.194,5.464,5.5c5.33.544,9.136-6.384,9.136-6.384Z" transform="translate(-1783.712 -46.901)" fill="#e29191"/>
                    </g>
                  </g>
                  <g id="Group_18" data-name="Group 18" transform="translate(4.356)">
                    <path id="Path_109" data-name="Path 109" d="M1790.207,23.315a8.09,8.09,0,0,1,.236-.9c2.171-7.17,15.865-2.19,15.865-2.19l5.386,2.515.283.127a2.347,2.347,0,0,1,.246-.116,2.7,2.7,0,0,1,1.973-.151,1.77,1.77,0,0,1,.9,1.656c.23,2.932-1.784,7.417-3.59,6.653,0,0-2.208,6.019-4.865,6.856-2.665.854-7.855,4.057-11.592.232C1791.471,34.342,1788.525,29.988,1790.207,23.315Z" transform="translate(-1785.069 -9.692)" fill="#f9a6a6"/>
                    <g id="Group_17" data-name="Group 17">
                      <path id="Path_110" data-name="Path 110" d="M1814.206,25.192s3.631,4.051,3.807,5.384.52-3.145,1.753-3.991,2.389-.418,2.094-.917S1814.206,25.192,1814.206,25.192Z" transform="translate(-1794.937 -12.37)" fill="#261910"/>
                      <path id="Path_111" data-name="Path 111" d="M1783.241,17.685c.838.023,1.612.06,2.334.1a7.3,7.3,0,0,1,.25-.867c2.3-6.944,16.752-2.146,16.752-2.146l5.682,2.426.559.01a3.089,3.089,0,0,1,2.083-.149c-.042-1.233-.466-8.641-4.489-10.726-4.419-2.285-13.262-5.521-18.171,2.492-.591.988-.607,3.516-1.437,4.379S1779.109,17.571,1783.241,17.685Z" transform="translate(-1781.929 -3.715)" fill="#f0b41d"/>
                      <path id="Path_112" data-name="Path 112" d="M1786.8,19.576a33.071,33.071,0,0,1,4.676.058c4.92-.527,11.1,1.511,11.1,1.511l5.682,2.426-5.658-.113a3.638,3.638,0,0,1-.622.82c-1.384,1.589-9.087,1.457-10.434.861a8.08,8.08,0,0,0-1.166-.368c-.157-.036-.346-.071-.518-.109-.339-.064-.7-.13-1.11-.19-.224-.031-.462-.059-.7-.093-.469-.053-.979-.1-1.518-.149-.216-.015-.417-.033-.642-.048-.815-.057-1.686-.1-2.645-.13C1779.109,23.941,1785.982,20.424,1786.8,19.576Z" transform="translate(-1781.929 -10.085)" fill="#f19f22"/>
                    </g>
                  </g>
                </g>
                <path id="Path_113" data-name="Path 113" d="M1805.635,194c-.332,1.041-.749,2.223-1.232,3.515h-.161c-1.343,0-2.675-.051-3.987-.161l2.891-16.241,2.464,12.757Z" transform="translate(-1784.959 -75.208)" fill="#231f20" opacity="0.31"/>
              </g>
              <g id="Group_21" data-name="Group 21" transform="translate(0 31.161)">
                <path id="Path_114" data-name="Path 114" d="M1799.092,100.461l11.473.547s-16.512,29.817-34.9,39.44a25.557,25.557,0,0,1-15.422,2.643c-1.325-.149-2.812-2.131-2.44-3.413.737-2.549,4.273-7.237,11.2-6.695,0,0-3.3-1.9-2.73-2.833s3.536-.234,5.842,1.079C1778.206,134.687,1798.325,107.011,1799.092,100.461Z" transform="translate(-1757.748 -73.866)" fill="#f9a6a6"/>
                <path id="Path_115" data-name="Path 115" d="M1826.27,56.5s-5.13,13.469-3,28.4l12.168,3.678s6.378-18.433,3.552-25.979C1835.44,53.107,1826.27,56.5,1826.27,56.5Z" transform="translate(-1783.946 -55.912)" fill="#ffde6e"/>
              </g>
            </g>
          </g>
        </g>
        <g id="Group_25" data-name="Group 25" transform="translate(-24.767 25.838)">
          <path id="Path_116" data-name="Path 116" d="M1842.041,16.352,1649.048,131.616V85.486L1841.693-29.586Z" transform="translate(-1649.048 29.586)" fill="#fff" opacity="0.25"/>
          <path id="Path_117" data-name="Path 117" d="M1842.041,83.3v33.622L1650.125,231.569l-1.077-.081V198.535Z" transform="translate(-1649.048 -15.909)" fill="#fff" opacity="0.25"/>
        </g>
      </g>
    </g>
    <g id="Group_47" data-name="Group 47" transform="translate(1480.384 -43.951)">
      <g id="Group_33" data-name="Group 33" transform="translate(9.45 116.944)">
        <g id="Group_32" data-name="Group 32" transform="translate(0.11)">
          <g id="Group_29" data-name="Group 29" transform="translate(47.682 88.937)">
            <g id="Group_28" data-name="Group 28">
              <path id="Path_118" data-name="Path 118" d="M1634.771,365.9l1.667,5.251s2.892,2.251,4.512.116,2.915-3.609,2.915-3.609l-.651-5.793Z" transform="translate(-1634.771 -361.867)" fill="#f7d3a9"/>
            </g>
          </g>
          <g id="Group_31" data-name="Group 31" transform="translate(0.278 91.859)">
            <g id="Group_30" data-name="Group 30">
              <path id="Path_119" data-name="Path 119" d="M1556.2,366.88l-.839,6.652s2.065,3.027,4.26,1.489a10.879,10.879,0,0,1,4.2-1.832l.832-6.428Z" transform="translate(-1555.366 -366.762)" fill="#f7d3a9"/>
            </g>
          </g>
          <path id="Path_120" data-name="Path 120" d="M1559.344,212.892s-4.444,16.428-2.222,24.2,1.851,41.105,1.851,41.105l-4.073,29.255,9.931.038s8.955-34.477,9.326-39.292,3.862-27.559,3.862-27.559l13.144,28.828,10.768,37.984s9.239-2.208,9.609-4.059-7.7-37.859-7.7-37.859-12.275-40.8-12.275-46.722-1.481-5.925-1.481-5.925Z" transform="translate(-1554.9 -212.892)" fill="#261910"/>
        </g>
        <path id="Path_121" data-name="Path 121" d="M1555.005,375.081h9.252l3.181,5.06,17.058,6.505h-29.78Z" transform="translate(-1554.716 -278.256)" fill="#261910"/>
        <path id="Path_122" data-name="Path 122" d="M1635.817,372.045l8.7-3.147,4.712,3.677,18.254.316-28,10.128Z" transform="translate(-1587.401 -275.764)" fill="#261910"/>
      </g>
      <path id="Path_123" data-name="Path 123" d="M1575.036,83.187c.587.147,8.068,3.374,5.721,5.868s-4.4-3.668-4.4-3.668Z" transform="translate(-1553.455 -43.675)" fill="#eac4a0"/>
      <g id="Group_35" data-name="Group 35" transform="translate(8.139 59.439)">
        <path id="Path_124" data-name="Path 124" d="M1665.3,139.4s14.671-1.614,16.871-1.761a2.16,2.16,0,0,0,2.054-2.347l-11.589.147s.293-4.841-1.76-2.787a10.757,10.757,0,0,1-3.961,2.64Z" transform="translate(-1597.973 -122.842)" fill="#f7d3a9"/>
        <g id="Group_34" data-name="Group 34">
          <path id="Path_125" data-name="Path 125" d="M1563.481,116.567a.842.842,0,0,1,.489.128c2.539,1.586,25.928,16.15,29.634,16.558,3.5.384,23.731-3.974,28.053-4.919a.823.823,0,0,1,.981.638l.734,3.547a.818.818,0,0,1-.524.94c-4.118,1.472-25.926,9.243-28.639,9.711-3,.517-38.545-10.654-41.086-15.926C1550.614,122.037,1556.311,116.949,1563.481,116.567Z" transform="translate(-1552.521 -116.566)" fill="#ede4da"/>
        </g>
      </g>
      <g id="Group_38" data-name="Group 38" transform="translate(2.79 28.822)">
        <g id="Group_37" data-name="Group 37">
          <path id="Path_126" data-name="Path 126" d="M1565.984,103.152s6.735,11.689,8.676,14.595c0,0-12.326.19-16.617-2.952l-.781-15.3Z" transform="translate(-1549.083 -79.068)" fill="#f7d3a9"/>
          <g id="Group_36" data-name="Group 36">
            <path id="Path_127" data-name="Path 127" d="M1562.167,70.837s7.082,14.281,5.519,18.474-12.163,1.025-17.491-3.346-9.745-16.466-3.775-19.368A12.115,12.115,0,0,1,1562.167,70.837Z" transform="translate(-1543.561 -65.282)" fill="#f7d3a9"/>
          </g>
        </g>
      </g>
      <g id="Group_43" data-name="Group 43" transform="translate(7 58.959)">
        <g id="Group_42" data-name="Group 42">
          <g id="Group_41" data-name="Group 41">
            <g id="Group_40" data-name="Group 40">
              <g id="Group_39" data-name="Group 39">
                <path id="Path_128" data-name="Path 128" d="M1590.826,176.1a1.656,1.656,0,0,1,.018,1.214c-1.993,5.381-34.719.743-34.719.743s4.023-16.018-3.949-41.387c-3.026-9.658-.724-15.509-.724-15.509,4.676-9.731,17.213-3.325,17.213-3.325,6.234,1.558,10.355,13.9,10.735,15.056C1579.8,134.066,1581.367,149.278,1590.826,176.1Z" transform="translate(-1550.613 -115.763)" fill="#fff"/>
              </g>
            </g>
          </g>
        </g>
      </g>
      <g id="Group_46" data-name="Group 46" transform="translate(36.755)">
        <g id="Group_45" data-name="Group 45" transform="translate(0 1.072)">
          <g id="Group_44" data-name="Group 44">
            <path id="Path_129" data-name="Path 129" d="M1663.517,98.024a8.771,8.771,0,0,1-8.772,8.771l-46.689-.007a7.586,7.586,0,0,1-7.588-7.58l.008-37.182v-2.6h63.042Z" transform="translate(-1600.46 -35.173)" fill="#f9dd8c"/>
            <path id="Path_130" data-name="Path 130" d="M1663.512,34.473v-6.9a8.771,8.771,0,0,0-8.77-8.771L1608.05,18.8a7.573,7.573,0,0,0-7.58,7.579v8.1h-.016v8.582h63.057V34.473Z" transform="translate(-1600.455 -18.798)" fill="#f8bd37"/>
          </g>
          <rect id="Rectangle_9" data-name="Rectangle 9" width="63.057" height="8.581" transform="translate(0 20.132)" fill="#fff" opacity="0.45"/>
        </g>
        <path id="Path_131" data-name="Path 131" d="M1656.292,54.727l-1.234-.588-.94.588h-2.586l-2.7-.47-.94.47h-1.117V17h9.519Z" transform="translate(-1619.122 -17.002)" fill="#fff" opacity="0.45"/>
      </g>
      <path id="Path_132" data-name="Path 132" d="M1686.928,97.675s7.849-.734,8.582-2.347,2.274-7.922,3.155-4.841a9.244,9.244,0,0,1,.219,5.061s5.061-.954,3.741,4.474-4.4,4.107-4.4,4.107l-8.215-.146Z" transform="translate(-1598.549 -46.28)" fill="#f7d3a9"/>
      <path id="Path_133" data-name="Path 133" d="M1564.2,127.812l41.893-6.161,30.3-11.443-2.25-8.509-35.364,9.1s-32.189-3.269-42.389-.391C1551.8,111.7,1547.332,116.076,1564.2,127.812Z" transform="translate(-1544.253 -51.136)" fill="#fff"/>
      <path id="Path_134" data-name="Path 134" d="M1556.36,68.2s8.068-1.907,6.161-6.308-9.682-10.563-10.563-4.841-12.617,2.054-13.057,10.856c-.337,6.741,5.135,18.338,10.856,16.724s4.254-4.988,2.934-6.6-5.134-9.976-2.641-8.215,5.428,5.281,5.428,1.32S1556.36,68.2,1556.36,68.2Z" transform="translate(-1538.887 -32.211)" fill="#261910"/>
      <path id="Path_135" data-name="Path 135" d="M1569.6,107.038l-5.868-1.981,7.151,4.309Z" transform="translate(-1548.9 -52.489)" fill="#eac4a0"/>
      <path id="Path_136" data-name="Path 136" d="M1591.883,141.509l-8.411.587,17.214,35.013S1592.274,145.421,1591.883,141.509Z" transform="translate(-1556.855 -67.18)" fill="#ede4da"/>
    </g>
  </g>
</svg>
