<svg xmlns="http://www.w3.org/2000/svg" xmlns:xlink="http://www.w3.org/1999/xlink" width="375" height="356" viewBox="0 0 375 356">
  <defs>
    <linearGradient id="linear-gradient" y1="0.5" x2="1" y2="0.5" gradientUnits="objectBoundingBox">
      <stop offset="0" stop-color="#f0b81c" stop-opacity="0.2"/>
      <stop offset="1" stop-color="#f0b41d" stop-opacity="0.302"/>
    </linearGradient>
    <linearGradient id="linear-gradient-3" y1="0.5" x2="1" y2="0.5" gradientUnits="objectBoundingBox">
      <stop offset="0" stop-color="#f0b41d"/>
      <stop offset="0.191" stop-color="#f0aa1f"/>
      <stop offset="0.503" stop-color="#f0a121"/>
      <stop offset="1" stop-color="#f19f22"/>
    </linearGradient>
  </defs>
  <g id="Group_136" data-name="Group 136" transform="translate(-1279.547 -1350.677)">
    <g id="Group_102" data-name="Group 102" transform="translate(1279.547 1350.677)">
      <g id="Group_101" data-name="Group 101">
        <path id="Path_298" data-name="Path 298" d="M1575.756,1600.933c-7.564,5.478-126.428,89.656-296.209,105.743V1434.421a430.723,430.723,0,0,0,54.829-11.6c70.473-19.691,115.669-51.016,116.091-51.325,55.017-39.844,127.661-20.778,162.257,42.575S1630.773,1561.089,1575.756,1600.933Z" transform="translate(-1279.547 -1350.676)" fill="url(#linear-gradient)"/>
      </g>
    </g>
    <g id="Group_103" data-name="Group 103" transform="translate(1341.588 1398.641)">
      <path id="Path_299" data-name="Path 299" d="M1486.614,1446.871a1.952,1.952,0,1,1,1.952-1.952A1.952,1.952,0,0,1,1486.614,1446.871Z" transform="translate(-1423.932 -1432.157)" fill="#fff"/>
      <path id="Path_300" data-name="Path 300" d="M1486.614,1482a1.952,1.952,0,1,1,1.952-1.952A1.952,1.952,0,0,1,1486.614,1482Z" transform="translate(-1423.932 -1444.915)" fill="#fff"/>
      <path id="Path_301" data-name="Path 301" d="M1486.614,1517.126a1.952,1.952,0,1,1,1.952-1.952A1.952,1.952,0,0,1,1486.614,1517.126Z" transform="translate(-1423.932 -1457.672)" fill="#fff"/>
      <path id="Path_302" data-name="Path 302" d="M1486.614,1552.253a1.952,1.952,0,1,1,1.952-1.952A1.952,1.952,0,0,1,1486.614,1552.253Z" transform="translate(-1423.932 -1470.428)" fill="#fff"/>
      <path id="Path_303" data-name="Path 303" d="M1486.614,1587.38a1.952,1.952,0,1,1,1.952-1.952A1.952,1.952,0,0,1,1486.614,1587.38Z" transform="translate(-1423.932 -1483.186)" fill="#fff"/>
      <path id="Path_304" data-name="Path 304" d="M1486.614,1622.508a1.952,1.952,0,1,1,1.952-1.952A1.952,1.952,0,0,1,1486.614,1622.508Z" transform="translate(-1423.932 -1495.943)" fill="#fff"/>
      <path id="Path_305" data-name="Path 305" d="M1486.614,1657.635a1.952,1.952,0,1,1,1.952-1.952A1.952,1.952,0,0,1,1486.614,1657.635Z" transform="translate(-1423.932 -1508.699)" fill="#fff"/>
      <path id="Path_306" data-name="Path 306" d="M1486.614,1692.762a1.952,1.952,0,1,1,1.952-1.952A1.952,1.952,0,0,1,1486.614,1692.762Z" transform="translate(-1423.932 -1521.457)" fill="#fff"/>
      <path id="Path_307" data-name="Path 307" d="M1473.412,1429.9a1.952,1.952,0,1,1,1.951-1.952A1.952,1.952,0,0,1,1473.412,1429.9Z" transform="translate(-1419.138 -1425.993)" fill="#fff"/>
      <path id="Path_308" data-name="Path 308" d="M1473.412,1465.024a1.952,1.952,0,1,1,1.951-1.952A1.952,1.952,0,0,1,1473.412,1465.024Z" transform="translate(-1419.138 -1438.75)" fill="#fff"/>
      <path id="Path_309" data-name="Path 309" d="M1473.412,1500.151a1.951,1.951,0,1,1,1.951-1.952A1.951,1.951,0,0,1,1473.412,1500.151Z" transform="translate(-1419.138 -1451.507)" fill="#fff"/>
      <path id="Path_310" data-name="Path 310" d="M1473.412,1535.279a1.952,1.952,0,1,1,1.951-1.952A1.952,1.952,0,0,1,1473.412,1535.279Z" transform="translate(-1419.138 -1464.264)" fill="#fff"/>
      <path id="Path_311" data-name="Path 311" d="M1473.412,1570.406a1.952,1.952,0,1,1,1.951-1.952A1.952,1.952,0,0,1,1473.412,1570.406Z" transform="translate(-1419.138 -1477.021)" fill="#fff"/>
      <path id="Path_312" data-name="Path 312" d="M1473.412,1605.533a1.952,1.952,0,1,1,1.951-1.952A1.952,1.952,0,0,1,1473.412,1605.533Z" transform="translate(-1419.138 -1489.778)" fill="#fff"/>
      <path id="Path_313" data-name="Path 313" d="M1473.412,1640.661a1.952,1.952,0,1,1,1.951-1.952A1.952,1.952,0,0,1,1473.412,1640.661Z" transform="translate(-1419.138 -1502.535)" fill="#fff"/>
      <path id="Path_314" data-name="Path 314" d="M1473.412,1675.788a1.952,1.952,0,1,1,1.951-1.952A1.952,1.952,0,0,1,1473.412,1675.788Z" transform="translate(-1419.138 -1515.292)" fill="#fff"/>
      <path id="Path_315" data-name="Path 315" d="M1459.227,1446.871a1.952,1.952,0,1,1,1.952-1.952A1.952,1.952,0,0,1,1459.227,1446.871Z" transform="translate(-1413.986 -1432.157)" fill="#fff"/>
      <path id="Path_316" data-name="Path 316" d="M1459.227,1482a1.952,1.952,0,1,1,1.952-1.952A1.952,1.952,0,0,1,1459.227,1482Z" transform="translate(-1413.986 -1444.915)" fill="#fff"/>
      <path id="Path_317" data-name="Path 317" d="M1459.227,1517.126a1.952,1.952,0,1,1,1.952-1.952A1.952,1.952,0,0,1,1459.227,1517.126Z" transform="translate(-1413.986 -1457.672)" fill="#fff"/>
      <path id="Path_318" data-name="Path 318" d="M1459.227,1552.253a1.952,1.952,0,1,1,1.952-1.952A1.952,1.952,0,0,1,1459.227,1552.253Z" transform="translate(-1413.986 -1470.428)" fill="#fff"/>
      <path id="Path_319" data-name="Path 319" d="M1459.227,1587.38a1.952,1.952,0,1,1,1.952-1.952A1.952,1.952,0,0,1,1459.227,1587.38Z" transform="translate(-1413.986 -1483.186)" fill="#fff"/>
      <path id="Path_320" data-name="Path 320" d="M1459.227,1622.508a1.952,1.952,0,1,1,1.952-1.952A1.952,1.952,0,0,1,1459.227,1622.508Z" transform="translate(-1413.986 -1495.943)" fill="#fff"/>
      <path id="Path_321" data-name="Path 321" d="M1459.227,1657.635a1.952,1.952,0,1,1,1.952-1.952A1.952,1.952,0,0,1,1459.227,1657.635Z" transform="translate(-1413.986 -1508.699)" fill="#fff"/>
      <path id="Path_322" data-name="Path 322" d="M1459.227,1692.762a1.952,1.952,0,1,1,1.952-1.952A1.952,1.952,0,0,1,1459.227,1692.762Z" transform="translate(-1413.986 -1521.457)" fill="#fff"/>
      <path id="Path_323" data-name="Path 323" d="M1446.025,1429.9a1.952,1.952,0,1,1,1.952-1.952A1.952,1.952,0,0,1,1446.025,1429.9Z" transform="translate(-1409.192 -1425.993)" fill="#fff"/>
      <path id="Path_324" data-name="Path 324" d="M1446.025,1465.024a1.952,1.952,0,1,1,1.952-1.952A1.952,1.952,0,0,1,1446.025,1465.024Z" transform="translate(-1409.192 -1438.75)" fill="#fff"/>
      <path id="Path_325" data-name="Path 325" d="M1446.025,1500.151a1.951,1.951,0,1,1,1.952-1.952A1.952,1.952,0,0,1,1446.025,1500.151Z" transform="translate(-1409.192 -1451.507)" fill="#fff"/>
      <path id="Path_326" data-name="Path 326" d="M1446.025,1535.279a1.952,1.952,0,1,1,1.952-1.952A1.952,1.952,0,0,1,1446.025,1535.279Z" transform="translate(-1409.192 -1464.264)" fill="#fff"/>
      <path id="Path_327" data-name="Path 327" d="M1446.025,1570.406a1.952,1.952,0,1,1,1.952-1.952A1.952,1.952,0,0,1,1446.025,1570.406Z" transform="translate(-1409.192 -1477.021)" fill="#fff"/>
      <path id="Path_328" data-name="Path 328" d="M1446.025,1605.533a1.952,1.952,0,1,1,1.952-1.952A1.952,1.952,0,0,1,1446.025,1605.533Z" transform="translate(-1409.192 -1489.778)" fill="#fff"/>
      <path id="Path_329" data-name="Path 329" d="M1446.025,1640.661a1.952,1.952,0,1,1,1.952-1.952A1.952,1.952,0,0,1,1446.025,1640.661Z" transform="translate(-1409.192 -1502.535)" fill="#fff"/>
      <path id="Path_330" data-name="Path 330" d="M1446.025,1675.788a1.952,1.952,0,1,1,1.952-1.952A1.952,1.952,0,0,1,1446.025,1675.788Z" transform="translate(-1409.192 -1515.292)" fill="#fff"/>
      <path id="Path_331" data-name="Path 331" d="M1431.84,1446.871a1.952,1.952,0,1,1,1.952-1.952A1.951,1.951,0,0,1,1431.84,1446.871Z" transform="translate(-1404.041 -1432.157)" fill="#fff"/>
      <path id="Path_332" data-name="Path 332" d="M1431.84,1482a1.952,1.952,0,1,1,1.952-1.952A1.951,1.951,0,0,1,1431.84,1482Z" transform="translate(-1404.041 -1444.915)" fill="#fff"/>
      <path id="Path_333" data-name="Path 333" d="M1431.84,1517.126a1.952,1.952,0,1,1,1.952-1.952A1.952,1.952,0,0,1,1431.84,1517.126Z" transform="translate(-1404.041 -1457.672)" fill="#fff"/>
      <path id="Path_334" data-name="Path 334" d="M1431.84,1552.253a1.952,1.952,0,1,1,1.952-1.952A1.951,1.951,0,0,1,1431.84,1552.253Z" transform="translate(-1404.041 -1470.428)" fill="#fff"/>
      <path id="Path_335" data-name="Path 335" d="M1431.84,1587.38a1.952,1.952,0,1,1,1.952-1.952A1.951,1.951,0,0,1,1431.84,1587.38Z" transform="translate(-1404.041 -1483.186)" fill="#fff"/>
      <path id="Path_336" data-name="Path 336" d="M1431.84,1622.508a1.952,1.952,0,1,1,1.952-1.952A1.952,1.952,0,0,1,1431.84,1622.508Z" transform="translate(-1404.041 -1495.943)" fill="#fff"/>
      <path id="Path_337" data-name="Path 337" d="M1431.84,1657.635a1.952,1.952,0,1,1,1.952-1.952A1.951,1.951,0,0,1,1431.84,1657.635Z" transform="translate(-1404.041 -1508.699)" fill="#fff"/>
      <path id="Path_338" data-name="Path 338" d="M1431.84,1692.762a1.952,1.952,0,1,1,1.952-1.952A1.951,1.951,0,0,1,1431.84,1692.762Z" transform="translate(-1404.041 -1521.457)" fill="#fff"/>
      <path id="Path_339" data-name="Path 339" d="M1418.638,1429.9a1.952,1.952,0,1,1,1.952-1.952A1.952,1.952,0,0,1,1418.638,1429.9Z" transform="translate(-1399.246 -1425.993)" fill="#fff"/>
      <path id="Path_340" data-name="Path 340" d="M1418.638,1465.024a1.952,1.952,0,1,1,1.952-1.952A1.952,1.952,0,0,1,1418.638,1465.024Z" transform="translate(-1399.246 -1438.75)" fill="#fff"/>
      <path id="Path_341" data-name="Path 341" d="M1418.638,1500.151a1.951,1.951,0,1,1,1.952-1.952A1.951,1.951,0,0,1,1418.638,1500.151Z" transform="translate(-1399.246 -1451.507)" fill="#fff"/>
      <path id="Path_342" data-name="Path 342" d="M1418.638,1535.279a1.952,1.952,0,1,1,1.952-1.952A1.952,1.952,0,0,1,1418.638,1535.279Z" transform="translate(-1399.246 -1464.264)" fill="#fff"/>
      <path id="Path_343" data-name="Path 343" d="M1418.638,1570.406a1.952,1.952,0,1,1,1.952-1.952A1.952,1.952,0,0,1,1418.638,1570.406Z" transform="translate(-1399.246 -1477.021)" fill="#fff"/>
      <path id="Path_344" data-name="Path 344" d="M1418.638,1605.533a1.952,1.952,0,1,1,1.952-1.952A1.952,1.952,0,0,1,1418.638,1605.533Z" transform="translate(-1399.246 -1489.778)" fill="#fff"/>
      <path id="Path_345" data-name="Path 345" d="M1418.638,1640.661a1.952,1.952,0,1,1,1.952-1.952A1.952,1.952,0,0,1,1418.638,1640.661Z" transform="translate(-1399.246 -1502.535)" fill="#fff"/>
      <path id="Path_346" data-name="Path 346" d="M1418.638,1675.788a1.952,1.952,0,1,1,1.952-1.952A1.952,1.952,0,0,1,1418.638,1675.788Z" transform="translate(-1399.246 -1515.292)" fill="#fff"/>
      <path id="Path_347" data-name="Path 347" d="M1404.454,1446.871a1.952,1.952,0,1,1,1.951-1.952A1.952,1.952,0,0,1,1404.454,1446.871Z" transform="translate(-1394.095 -1432.157)" fill="#fff"/>
      <path id="Path_348" data-name="Path 348" d="M1404.454,1482a1.952,1.952,0,1,1,1.951-1.952A1.952,1.952,0,0,1,1404.454,1482Z" transform="translate(-1394.095 -1444.915)" fill="#fff"/>
      <path id="Path_349" data-name="Path 349" d="M1404.454,1517.126a1.952,1.952,0,1,1,1.951-1.952A1.952,1.952,0,0,1,1404.454,1517.126Z" transform="translate(-1394.095 -1457.672)" fill="#fff"/>
      <path id="Path_350" data-name="Path 350" d="M1404.454,1552.253a1.952,1.952,0,1,1,1.951-1.952A1.952,1.952,0,0,1,1404.454,1552.253Z" transform="translate(-1394.095 -1470.428)" fill="#fff"/>
      <path id="Path_351" data-name="Path 351" d="M1404.454,1587.38a1.952,1.952,0,1,1,1.951-1.952A1.952,1.952,0,0,1,1404.454,1587.38Z" transform="translate(-1394.095 -1483.186)" fill="#fff"/>
      <path id="Path_352" data-name="Path 352" d="M1404.454,1622.508a1.952,1.952,0,1,1,1.951-1.952A1.952,1.952,0,0,1,1404.454,1622.508Z" transform="translate(-1394.095 -1495.943)" fill="#fff"/>
      <path id="Path_353" data-name="Path 353" d="M1404.454,1657.635a1.952,1.952,0,1,1,1.951-1.952A1.952,1.952,0,0,1,1404.454,1657.635Z" transform="translate(-1394.095 -1508.699)" fill="#fff"/>
      <path id="Path_354" data-name="Path 354" d="M1404.454,1692.762a1.952,1.952,0,1,1,1.951-1.952A1.952,1.952,0,0,1,1404.454,1692.762Z" transform="translate(-1394.095 -1521.457)" fill="#fff"/>
      <path id="Path_355" data-name="Path 355" d="M1391.251,1429.9a1.952,1.952,0,1,1,1.952-1.952A1.951,1.951,0,0,1,1391.251,1429.9Z" transform="translate(-1389.3 -1425.993)" fill="#fff"/>
      <path id="Path_356" data-name="Path 356" d="M1391.251,1465.024a1.952,1.952,0,1,1,1.952-1.952A1.951,1.951,0,0,1,1391.251,1465.024Z" transform="translate(-1389.3 -1438.75)" fill="#fff"/>
      <path id="Path_357" data-name="Path 357" d="M1391.251,1500.151a1.951,1.951,0,1,1,1.952-1.952A1.951,1.951,0,0,1,1391.251,1500.151Z" transform="translate(-1389.3 -1451.507)" fill="#fff"/>
      <path id="Path_358" data-name="Path 358" d="M1391.251,1535.279a1.952,1.952,0,1,1,1.952-1.952A1.952,1.952,0,0,1,1391.251,1535.279Z" transform="translate(-1389.3 -1464.264)" fill="#fff"/>
      <path id="Path_359" data-name="Path 359" d="M1391.251,1570.406a1.952,1.952,0,1,1,1.952-1.952A1.951,1.951,0,0,1,1391.251,1570.406Z" transform="translate(-1389.3 -1477.021)" fill="#fff"/>
      <path id="Path_360" data-name="Path 360" d="M1391.251,1605.533a1.952,1.952,0,1,1,1.952-1.952A1.952,1.952,0,0,1,1391.251,1605.533Z" transform="translate(-1389.3 -1489.778)" fill="#fff"/>
      <path id="Path_361" data-name="Path 361" d="M1391.251,1640.661a1.952,1.952,0,1,1,1.952-1.952A1.951,1.951,0,0,1,1391.251,1640.661Z" transform="translate(-1389.3 -1502.535)" fill="#fff"/>
      <path id="Path_362" data-name="Path 362" d="M1391.251,1675.788a1.952,1.952,0,1,1,1.952-1.952A1.951,1.951,0,0,1,1391.251,1675.788Z" transform="translate(-1389.3 -1515.292)" fill="#fff"/>
    </g>
    <g id="Group_135" data-name="Group 135" transform="translate(1292.745 1354.783)">
      <g id="Group_109" data-name="Group 109" transform="translate(5.095 234.449)">
        <g id="Group_108" data-name="Group 108">
          <g id="Group_104" data-name="Group 104" transform="translate(13.586 13.74)">
            <path id="Path_363" data-name="Path 363" d="M1360.672,1751.122s3.045-22.1-3.017-19.92S1354.376,1742.24,1360.672,1751.122Z" transform="translate(-1338.568 -1731.05)" fill="#261910"/>
            <path id="Path_364" data-name="Path 364" d="M1352.113,1753.18s-12.4-21.8-20.951-14.305S1352.113,1753.18,1352.113,1753.18Z" transform="translate(-1329.606 -1733.322)" fill="#261910"/>
          </g>
          <g id="Group_107" data-name="Group 107">
            <g id="Group_105" data-name="Group 105">
              <path id="Path_365" data-name="Path 365" d="M1308.272,1758.91H1455.8l-1.851-6.451-4.353-15.279a22.022,22.022,0,0,0-24.867-15.649l-5.586.969a7.542,7.542,0,0,1-1.234.106,7.457,7.457,0,0,1-6.2-3.331,22.021,22.021,0,0,0-38.384,3.155l-.951,2.115a7.429,7.429,0,0,1-9.816,3.718l-5.551-2.485a7.432,7.432,0,0,0-8.9,2.2,7.263,7.263,0,0,0-1.481,3.331l-.828,4.829a7.394,7.394,0,0,1-1.321,3.137c-.124.159-.247.317-.37.458a7.471,7.471,0,0,1-4.335,2.468,6.616,6.616,0,0,1-1.322.124,7.325,7.325,0,0,1-4.036-1.2,7.44,7.44,0,0,0-9.323.969Z" transform="translate(-1308.272 -1709.475)" fill="#f9c043"/>
              <path id="Path_366" data-name="Path 366" d="M1355.178,1771.56h117.654l-1.851-6.451a26.273,26.273,0,0,0-22.03-6.362l-4.353.741-2.344.387a8.893,8.893,0,0,1-8.917-3.841,25.873,25.873,0,0,0-5.129-5.71,20.84,20.84,0,0,0-2.291-1.71,26.4,26.4,0,0,0-38.542,11.208l-1.146,2.5a8.912,8.912,0,0,1-11.773,4.476l-3.384-1.516-3.26-1.463a8.919,8.919,0,0,0-12.442,6.627Z" transform="translate(-1325.307 -1722.126)" fill="#f19f22"/>
              <path id="Path_367" data-name="Path 367" d="M1505.794,1743.37a3.422,3.422,0,1,0,3.422-3.422A3.423,3.423,0,0,0,1505.794,1743.37Z" transform="translate(-1380.005 -1720.542)" fill="#ffde6e"/>
              <path id="Path_368" data-name="Path 368" d="M1374.186,1747.969c-4.442,5.835,2.151,12.428,7.985,7.987h0C1386.616,1750.121,1380.021,1743.525,1374.186,1747.969Z" transform="translate(-1331.68 -1722.925)" fill="#ffde6e"/>
              <path id="Path_369" data-name="Path 369" d="M1425.16,1723.459a9.084,9.084,0,1,0,9.085-9.085A9.084,9.084,0,0,0,1425.16,1723.459Z" transform="translate(-1350.722 -1711.254)" fill="#ffde6e"/>
            </g>
            <g id="Group_106" data-name="Group 106" transform="translate(71.09 30.204)">
              <path id="Path_370" data-name="Path 370" d="M1447.069,1772.895s11.8-14.874,6.411-15.9S1446.3,1763.662,1447.069,1772.895Z" transform="translate(-1429.707 -1756.903)" fill="#261910"/>
              <path id="Path_371" data-name="Path 371" d="M1437.265,1773.052s-7.437-20-15.644-14.874S1437.265,1773.052,1437.265,1773.052Z" transform="translate(-1419.903 -1757.06)" fill="#261910"/>
              <path id="Path_372" data-name="Path 372" d="M1447.166,1777.085s27.439-3.334,20.516-7.693S1447.166,1777.085,1447.166,1777.085Z" transform="translate(-1429.804 -1761.093)" fill="#261910"/>
            </g>
          </g>
        </g>
      </g>
      <path id="Path_373" data-name="Path 373" d="M1633.553,1785.861c-22.911,28.5-56.136,46.425-93.171,46.485a113.586,113.586,0,0,1-45.878-9.6,25.777,25.777,0,0,0-22.7.964,57.953,57.953,0,0,1-39.513,5.721c-49.9,14.531-91.394,8.6-120.317-26.671a121.269,121.269,0,0,1-11.706-16.9Z" transform="translate(-1300.272 -1500.519)" fill="url(#linear-gradient)"/>
      <path id="Path_374" data-name="Path 374" d="M1855.614,1364.377v293.794h-8.406V1368.94l-112.68,33.414V1645.1h-9.507V1403.131a7.222,7.222,0,0,1,4.841-6.905l116.691-38.754A7.005,7.005,0,0,1,1855.614,1364.377Z" transform="translate(-1493.812 -1357.124)" fill="url(#linear-gradient-3)"/>
      <path id="Path_375" data-name="Path 375" d="M1852.63,1374.92v289.714l-112.681-13.094V1408.39Z" transform="translate(-1499.234 -1363.587)" fill="#ffde6e"/>
      <path id="Path_376" data-name="Path 376" d="M1844.809,1357.748V1663.56l-104.275-18.352-.585-.09V1402.534l104.671-44.7Z" transform="translate(-1499.234 -1357.351)" fill="#f19f22"/>
      <g id="Group_110" data-name="Group 110" transform="translate(240.716 0.398)">
        <path id="Path_377" data-name="Path 377" d="M1844.809,1357.749v100.007l-104.86,130.04V1487.652L1844.62,1357.83Z" transform="translate(-1739.949 -1357.749)" fill="#fff" opacity="0.25"/>
        <path id="Path_378" data-name="Path 378" d="M1844.809,1542.36v35.9l-104.275,122.42-.585-.086v-35.189Z" transform="translate(-1739.949 -1412.485)" fill="#fff" opacity="0.25"/>
      </g>
      <g id="Group_114" data-name="Group 114" transform="translate(205.16 101.05)">
        <path id="Path_379" data-name="Path 379" d="M1760.084,1499.371c-2.145,3.7-.293,8.767-2.458,12.461-.866,1.478-2.334,2.64-2.75,4.3a3.751,3.751,0,0,0,5.395,4.225,4.594,4.594,0,0,1,.833-.414c1.071-.313,2.039.637,2.959,1.266a4.517,4.517,0,0,0,3.9.689c1.662-.556,2.69-2.232,3.244-3.895,1.548-4.649.449-9.739-.983-14.425-.715-2.342-1.771-4.939-4.066-5.789" transform="translate(-1709.776 -1496.952)" fill="#261910"/>
        <path id="Path_380" data-name="Path 380" d="M1684.594,1553.212c-.035.515-.819.959-.3,2.043,1.166,2.419,4.795,5.77,9.136,4.229.189.068,23.981,13.82,25.813,13.82s14.319-11.815,18.4-26.435c.974-3.488.6-7.592-2.674-9.356a7.726,7.726,0,0,0-4.493,4c-2.7,5.1-10.8,22.012-12.6,22.65-2.237-1.491-13.132-4.729-21.955-8.477a5.976,5.976,0,0,1-3.42-2.857,28.388,28.388,0,0,0-3.665-5.715c-.473-.483-.663,2.695-.464,3.208.34.672-3.742-.562-4.082.85C1684.24,1551.373,1684.613,1552.943,1684.594,1553.212Z" transform="translate(-1684.117 -1511.377)" fill="#ffb9b0"/>
        <path id="Path_381" data-name="Path 381" d="M1758.429,1536.835a10.714,10.714,0,0,0-7.1,5.51,22.056,22.056,0,0,0-.968,2.221c-1.268,3.223-3.012,6.142-4.278,9.365a18.976,18.976,0,0,0,5.6,2.7,11.924,11.924,0,0,0,5.208.7,2.655,2.655,0,0,0,.877-.193,2.908,2.908,0,0,0,.912-.783q.813-.933,1.584-1.9a5.239,5.239,0,0,0,1.063-1.821,5.522,5.522,0,0,0-.25-2.837" transform="translate(-1706.619 -1511.131)" fill="#fff"/>
        <path id="Path_382" data-name="Path 382" d="M1757.18,1550.443a1.091,1.091,0,0,1,.407-.348.74.74,0,0,1,.856.38,1.956,1.956,0,0,1,.177.993,13.515,13.515,0,0,1-.608,3.859l.406,6.8-.01.013a11.91,11.91,0,0,1-4.871-.71c-.735-.273-1.529-.556-2.328-.88C1752.025,1556.719,1754.638,1553.474,1757.18,1550.443Z" transform="translate(-1708.483 -1515.933)" fill="#7762ef" opacity="0.35" style="mix-blend-mode: multiply;isolation: isolate"/>
        <path id="Path_383" data-name="Path 383" d="M1775.227,1525.525s.092,4.257-.562,4.536a16.725,16.725,0,0,1-2.751.851l-.043,8.81,11.746-1.771,8.081-4.5s-8.4-2.784-8.472-3.622.462-5.549.462-5.549" transform="translate(-1715.986 -1506.572)" fill="#ffb9b0"/>
        <g id="Group_111" data-name="Group 111" transform="translate(58.296 82.016)">
          <path id="Path_384" data-name="Path 384" d="M1797.522,1716.882l.007.032c3.213,15.239,1.682,36.171,2.4,47.642-.167.047-4.367.573-4.367.573s-9.938-48.35-11.742-57.609a13.166,13.166,0,0,1-.23-1.793c-.433-6.967,5.847-7.322,9.386-1.563a24.421,24.421,0,0,1,1.619,3.11c.2.455.385.915.578,1.406l0,.016a45.215,45.215,0,0,1,1.558,4.864l.037.177c.147.487.266.982.385,1.477l.024.113C1797.3,1715.836,1797.41,1716.35,1797.522,1716.882Z" transform="translate(-1778.53 -1652.456)" fill="#ffb9b0"/>
          <path id="Path_385" data-name="Path 385" d="M1775.832,1635c.117,1.261.79,7.261,1.6,14.338.689,5.95,1.446,12.657,2.034,17.969.437,3.983.756,7.16.89,8.656a19.384,19.384,0,0,0,.354,2.572v.033c1.513,6.959,6.32,7.362,9.244,5.749a5.78,5.78,0,0,0,1.109-.756,3.719,3.719,0,0,0,1.244-2.051v-.016c.185-1.429.37-3.378.538-5.7v-.033c.016-.017.016-.017.016-.034l.017-.05c.353-4.521.655-10.337.924-16,.319-6.958.521-13.665.572-17.447.016-.218.016-.42.033-.621.051-11.6-10.606-19.027-17.228-15.43a1.522,1.522,0,0,0-.236.117,2.388,2.388,0,0,1-.252.151c-.756.5-1.009,2.235-1.025,4.218C1775.63,1632.105,1775.731,1633.686,1775.832,1635Z" transform="translate(-1775.658 -1625.26)" fill="#ffb9b0"/>
          <path id="Path_386" data-name="Path 386" d="M1800.756,1707.534l.811-3.037c0,.016,0,.016-.008.036a48.53,48.53,0,0,0,1.008,10.606l.037.177c.115.479.238.99.385,1.477l.024.113a8.144,8.144,0,0,1,.343,1.556l.007.032c.009,1.378-2.924-4.738-3.6-6.169-.083-.18-.135-.286-.135-.286l.795-3.186Z" transform="translate(-1784.364 -1654.036)" fill="#ffb9b0"/>
        </g>
        <g id="Group_112" data-name="Group 112" transform="translate(40.992 81.51)">
          <path id="Path_387" data-name="Path 387" d="M1759.222,1719.983v.033c.3,15.955-4.623,34.715-5.926,46.3-.159.005-4.024-.515-4.024-.515s-.736-48.878-.788-58.536a14.958,14.958,0,0,1,.1-1.84c.794-7.037,6.5-5.831,8.707.776a28.581,28.581,0,0,1,.929,3.494c.1.5.191,1.006.281,1.542v.017a52.322,52.322,0,0,1,.576,5.225l0,.185c.05.521.073,1.042.1,1.565l0,.118C1759.2,1718.888,1759.212,1719.427,1759.222,1719.983Z" transform="translate(-1748.485 -1652.141)" fill="#ffb9b0"/>
          <path id="Path_388" data-name="Path 388" d="M1755.957,1685.8a4.183,4.183,0,0,0,1.121-.489,3.2,3.2,0,0,0,1.467-1.728l0-.018c.418-1.374.918-3.294,1.472-5.559.013-.019.013-.019.011-.037l.024-.056c1.078-4.4,2.354-10.112,3.546-15.668,1.464-6.84,2.791-13.465,3.473-17.226.053-.2.643-2.941.683-3.142,2.045-11.656-7.046-19.248-13.652-17.026-.1.03-.177.059-.259.088-1.328.534-1.7,5.206-2,8.363s-2.544,35.882-3.1,41.8a24.032,24.032,0,0,0-.117,2.651C1748.784,1685.071,1753.047,1686.673,1755.957,1685.8Z" transform="translate(-1748.535 -1624.466)" fill="#ffb9b0"/>
          <path id="Path_389" data-name="Path 389" d="M1763.572,1711.3l1.244-2.82c0,.016,0,.016-.012.034a54.275,54.275,0,0,0-.894,10.8l0,.185c.023.505.047,1.043.1,1.565l0,.118a9.343,9.343,0,0,1,.045,1.634v.033c-.226,1.372-1.826-5.438-2.188-7.029-.043-.2-.072-.318-.072-.318l1.255-2.972Z" transform="translate(-1753.32 -1654.979)" fill="#ffb9b0"/>
        </g>
        <path id="Path_390" data-name="Path 390" d="M1778.335,1604.636s8.555,10.867,7.677,21.786c-.366,4.546-.929,8.55-1.447,13.123-.074.659-.651,30.08-.363,30.09,0,0,.922,7.743,3.688,51.805.392,6.244-5.591,6.314-7.744,6.268-.278-.006-13.458-75.93-13.741-75.941-.226-.008-1.979,11.673-4.053,25.808-3.177,21.648-7.292,50.894-7.648,50.87-4.878-.324-2.612.384-7.928-1.844,0-1.163-1.782-103.918,10.159-123.3A148.367,148.367,0,0,0,1778.335,1604.636Z" transform="translate(-1706.839 -1535.271)" fill="#261910"/>
        <path id="Path_391" data-name="Path 391" d="M1754.319,1554.466c.068,3.114,1.724,5.008,4.1,7.633.3.467,1.038,7.406,1.29,12.02.131,2.4-.895,3.91,0,4.107,3.419,2.983,15.743,5.4,21.4,1.327-.593-5.018,1.655-16.072,3.172-21.693.236-.865.444-1.6.633-2.159,1.412-4.269,3.962-17.959,2.075-18.556-.376-.119-.96-.273-1.637-.477-2.954-.891-7.32-2.421-7.32-2.421s-2.561,7.574-9.218,8.489c-3.634-1.5-3.313-6.093-3.27-8.2-1.188.329-1.712.655-5.4,1.746-1.032,1.488-.141,4.595-1.809,9.227C1757.919,1546.655,1754.237,1550.675,1754.319,1554.466Z" transform="translate(-1709.612 -1510.191)" fill="#fff"/>
        <path id="Path_392" data-name="Path 392" d="M1765.5,1496.5s-2.224,9.768-.819,14.08c1.04,3.195,5.309,6.177,8.879,6.136,9.827,0,11.59-13.348,11.538-13.994s-14.494-6.249-14.494-6.249Z" transform="translate(-1713.205 -1496.473)" fill="#ffb9b0"/>
        <path id="Path_393" data-name="Path 393" d="M1762.175,1626.4" transform="translate(-1712.465 -1543.658)" fill="#f2f2f2"/>
        <g id="Group_113" data-name="Group 113" transform="translate(66.821 25.829)">
          <path id="Path_394" data-name="Path 394" d="M1848.138,1550l-3.219-3.83-19.636,17.559s-9.587-12.761-12.224-16.746c-2.9-4.381-5.514-8.128-9.754-8.861-.976.6.33,16.339.84,16.72,5.924,4.432,17.452,18.729,21.119,19.472C1829.5,1575.175,1848.138,1550,1848.138,1550Z" transform="translate(-1794.095 -1537.429)" fill="#ffb9b0"/>
          <path id="Path_395" data-name="Path 395" d="M1796.8,1537.032s4.012.05,5.737,1.471,9.966,14.484,9.966,14.484a5.8,5.8,0,0,1-2.167,4.537,12.028,12.028,0,0,1-5.935,2.57s-4.138-4.117-6.469-5.991c-1.453-1.167-1.6,1.722-1.6,1.722l-7.294-7.12Z" transform="translate(-1789.044 -1537.032)" fill="#fff"/>
        </g>
        <path id="Path_396" data-name="Path 396" d="M1861.061,1551.106s4.615-3.7,4.93-4.713.383-2.1.763-3.087a5.783,5.783,0,0,1,3.2-3.186c1.157-.476.59-.868,1.83-.629,1.871.362,2.758,2.2,3.505,3.628,3.187,6.108-5.542,7.266-5.85,7.278-.637.025-3.885,3.708-3.885,3.708" transform="translate(-1748.377 -1512.069)" fill="#ffb9b0"/>
        <path id="Path_397" data-name="Path 397" d="M1879.627,1544.87a6.365,6.365,0,0,0-1.112-4.755,10.39,10.39,0,0,0-1.133-1.223,1.591,1.591,0,0,0-.684-.452,2.159,2.159,0,0,0-1.479.335,2.7,2.7,0,0,0-1.213,1.2,1.606,1.606,0,0,0,.89,1.931.337.337,0,0,1,.163.161c.038.112-.041.252-.111.376a2.734,2.734,0,0,0-.469,1.579.924.924,0,0,0,1.085.813c.24-.038.557-.13.636.05a.41.41,0,0,1,0,.207,1.691,1.691,0,0,0,.367,1.333.474.474,0,0,0,.293.184.791.791,0,0,0,.307-.041,4.23,4.23,0,0,0,1.081-.481" transform="translate(-1753.042 -1511.702)" fill="#ffb9b0"/>
        <path id="Path_398" data-name="Path 398" d="M1868.851,1546.628a24.37,24.37,0,0,0,.377-2.481,5.647,5.647,0,0,1,2.67-4.643.666.666,0,0,1,.434-.124.479.479,0,0,1,.354.415,1.279,1.279,0,0,1-.085.572c-.188.588-1.021,1.69-.763,2.3a6.878,6.878,0,0,1,.659,2.877c-.03.877-.439,2.3-1.479,2.447" transform="translate(-1751.206 -1512.053)" fill="#ffb9b0"/>
      </g>
      <g id="Group_118" data-name="Group 118" transform="translate(325.05 107.661)">
        <g id="Group_115" data-name="Group 115" transform="translate(0 2.188)">
          <path id="Path_399" data-name="Path 399" d="M1881.226,1557.077h-.178a8.682,8.682,0,0,1-8.672-8.672V1531.3a8.682,8.682,0,0,1,8.672-8.672v4.158a4.519,4.519,0,0,0-4.514,4.514V1548.4a4.519,4.519,0,0,0,4.514,4.514h.178Z" transform="translate(-1872.376 -1522.627)" fill="#261910"/>
        </g>
        <g id="Group_116" data-name="Group 116" transform="translate(7.129)">
          <path id="Path_400" data-name="Path 400" d="M1887.555,1523.616c0,2.443-.633,4.425-1.413,4.425s-1.414-1.981-1.414-4.425.633-4.425,1.414-4.425S1887.555,1521.172,1887.555,1523.616Z" transform="translate(-1883.991 -1519.191)" fill="#ffde6e"/>
          <path id="Path_401" data-name="Path 401" d="M1886.4,1523.616c0,2.443-.632,4.425-1.413,4.425s-1.414-1.981-1.414-4.425.633-4.425,1.414-4.425S1886.4,1521.172,1886.4,1523.616Z" transform="translate(-1883.57 -1519.191)" fill="#261910"/>
        </g>
        <g id="Group_117" data-name="Group 117" transform="translate(7.129 29.727)">
          <path id="Path_402" data-name="Path 402" d="M1887.555,1570.295c0,2.443-.633,4.425-1.413,4.425s-1.414-1.981-1.414-4.425.633-4.425,1.414-4.425S1887.555,1567.851,1887.555,1570.295Z" transform="translate(-1883.991 -1565.87)" fill="#ffde6e"/>
          <path id="Path_403" data-name="Path 403" d="M1886.4,1570.295c0,2.443-.632,4.425-1.413,4.425s-1.414-1.981-1.414-4.425.633-4.425,1.414-4.425S1886.4,1567.851,1886.4,1570.295Z" transform="translate(-1883.57 -1565.87)" fill="#261910"/>
        </g>
      </g>
      <path id="Path_404" data-name="Path 404" d="M1796.85,1799.06l5.4-1.482.873,5.969-14.5,4.486Z" transform="translate(-1509.226 -1504.774)" fill="#f19f22"/>
      <path id="Path_405" data-name="Path 405" d="M1742.952,1802.193l5.595-.106-.627,6-15.161.77Z" transform="translate(-1485.419 -1506.411)" fill="#f19f22"/>
      <g id="Group_119" data-name="Group 119" transform="translate(253.311 90.897)">
        <path id="Path_406" data-name="Path 406" d="M1791.284,1507.15c-.646-1.21-1.864-2-2.7-3.093a9.546,9.546,0,0,1-1.589-5.373,35.511,35.511,0,0,0-.383-5.67c-.68-3.171-1.583-6.191-4.027-8.234-3.773-3.153-11.19-5.053-15.542-1.919-1.188-1.248-5.216-4.865-7.862.195-1.311,2.505-1.357,4.18-.976,5.292a2.525,2.525,0,0,0-.106,1,6.577,6.577,0,0,0,2.669,3.885,3.246,3.246,0,0,0,1.509.338c1.664.033,3.043-1.051,4.676-.875a3.107,3.107,0,0,1,2.048,1.136c.589.726.509,1.739,1.2,2.417a4.92,4.92,0,0,0,2.342,1.092c.247.936.539,1.944.9,3.041a31.3,31.3,0,0,1,1.242,5.064c-.038-.4-.082-.808-.136-1.254-.258-2.1-.439-4.35-.567-6.391.113.049.227.095.335.154a1.368,1.368,0,0,1,.562.464,1.469,1.469,0,0,1,.142.7q.038,1.032.076,2.062c.648-.285.715-1.207,1.249-1.671a1.484,1.484,0,0,1,1.872.121,3.138,3.138,0,0,1,.9,1.793,5.17,5.17,0,0,1-.364,2.463c-.427,1.4-1.627,2.663-2.6,1.737-.7,1.034.065,2.762.091,3.932.02.928,0,2.767-.864,3.377-.8.56-2.062.135-2.11,1.579a2.778,2.778,0,0,0,2.592,2.516,9.7,9.7,0,0,0,3.878-.676,6.074,6.074,0,0,1,3.888-.19,11.8,11.8,0,0,0,2.184.982,3.4,3.4,0,0,0,2.137-.508c.219-.116.434-.242.643-.367a5.412,5.412,0,0,0,2.634-2.659C1791.912,1511.769,1792.24,1508.94,1791.284,1507.15Z" transform="translate(-1758 -1480.44)" fill="#261910"/>
        <path id="Path_407" data-name="Path 407" d="M1784.161,1525.072a14.367,14.367,0,0,0,.023-5.36A19.286,19.286,0,0,1,1784.161,1525.072Z" transform="translate(-1767.501 -1494.702)" fill="#5045af"/>
        <path id="Path_408" data-name="Path 408" d="M1784.026,1528.129a4.31,4.31,0,0,1-.236.76A2.508,2.508,0,0,0,1784.026,1528.129Z" transform="translate(-1767.366 -1497.759)" fill="#5045af"/>
      </g>
      <g id="Group_121" data-name="Group 121" transform="translate(215.743 121.381)">
        <path id="Path_409" data-name="Path 409" d="M1684.7,1540.97s3.5,6.075,1.163,10.4l-1.589-1.066s-2.973-4.327-5.113-5.41l1.363-2.268,1.09,1.216-.69-1.7,2.6-1.322.449-.316Z" transform="translate(-1677.64 -1540.508)" fill="#f8bd37"/>
        <path id="Path_410" data-name="Path 410" d="M1679.785,1544.535s5.961,3.688,5.961,8.6l-1.9-.184s-4.671-2.4-7.068-2.335l.123-2.642.123-.615,1.66-2.4.246-.492Z" transform="translate(-1676.773 -1541.948)" fill="#f9dd8c"/>
        <g id="Group_120" data-name="Group 120" transform="translate(3.711 5.974)">
          <path id="Path_411" data-name="Path 411" d="M1682.836,1552.248l.143-.292a.937.937,0,0,1-.379-.344l.164-.159a.863.863,0,0,0,.355.329.338.338,0,0,0,.483-.114c.078-.159.014-.312-.157-.5-.238-.26-.354-.483-.231-.733a.529.529,0,0,1,.665-.25l.143-.291.179.088-.138.28a.855.855,0,0,1,.325.285l-.166.155a.778.778,0,0,0-.315-.277.293.293,0,0,0-.428.1c-.074.15,0,.278.2.505.238.268.313.492.187.749a.56.56,0,0,1-.7.266l-.148.3Z" transform="translate(-1682.6 -1549.889)" fill="#fff"/>
        </g>
      </g>
      <path id="Path_412" data-name="Path 412" d="M1877.408,1539.938s-3.687,4.67-3.135,6.575-.8,5.408,2.95,3.442S1877.408,1539.938,1877.408,1539.938Z" transform="translate(-1547.995 -1418.944)" fill="#ffb9b0"/>
      <g id="Group_124" data-name="Group 124" transform="translate(193.809 248.069)">
        <g id="Group_123" data-name="Group 123">
          <g id="Group_122" data-name="Group 122">
            <path id="Path_413" data-name="Path 413" d="M1676.394,1795.191l-31.719-11.878v-37.33l31.719,11.878Z" transform="translate(-1644.675 -1734.105)" fill="#f9dd8c"/>
            <path id="Path_414" data-name="Path 414" d="M1726.2,1783.313l-31.719,11.878v-37.33l31.719-11.878Z" transform="translate(-1662.762 -1734.105)" fill="#ffde6e"/>
            <path id="Path_415" data-name="Path 415" d="M1676.394,1727.331l-31.719,11.878,31.716,11.878,31.719-11.878Z" transform="translate(-1644.675 -1727.331)" fill="#f8bd37"/>
            <path id="Path_416" data-name="Path 416" d="M1672.1,1734.012l-7.936,2.941,31.715,11.878,7.936-2.941Z" transform="translate(-1651.751 -1729.757)" fill="#fff" opacity="0.45"/>
          </g>
          <path id="Path_417" data-name="Path 417" d="M1713.961,1755.6v9.469l1.267-.7.666-1.06.3,1.576.606-1.273.3.727,2.424-.727.3-1.515.545,1.151,1.545-.969-.027-9.623Z" transform="translate(-1669.837 -1736.531)" fill="#fff" opacity="0.45"/>
          <path id="Path_418" data-name="Path 418" d="M1721.924,1805.883v-9.469l-1.267.7-.667,1.061-.3-1.576-.606,1.273-.3-.727-2.424.727-.3,1.515-.545-1.152-1.545.97.027,9.623Z" transform="translate(-1669.837 -1752.419)" fill="#fff" opacity="0.45"/>
        </g>
      </g>
      <g id="Group_134" data-name="Group 134" transform="translate(79.393 88.164)">
        <g id="Group_127" data-name="Group 127" transform="translate(0 95.636)">
          <g id="Group_125" data-name="Group 125" transform="translate(61.423 105.788)">
            <path id="Path_419" data-name="Path 419" d="M1542.09,1794.834v8.988l24.241,2.591-13.7-13.885A38.186,38.186,0,0,0,1542.09,1794.834Z" transform="translate(-1542.09 -1792.528)" fill="#261910"/>
          </g>
          <g id="Group_126" data-name="Group 126">
            <path id="Path_420" data-name="Path 420" d="M1499.955,1630.12s-4.007,12.769-11.608,33.046c-2.284,6.085-5.655,14.623-9.231,23.591-2.6,6.5-5.317,13.218-7.826,19.416v.019c-5.579,13.724-10.13,24.771-10.13,24.771s-9.717-2.34-9.436-3.426c.842-3.24,13.593-71.2,15.221-81.933,2.809-18.424,2.359-19.191,2.359-19.191Z" transform="translate(-1447.848 -1626.413)" fill="#f0b41d"/>
            <path id="Path_421" data-name="Path 421" d="M1514.71,1626.694s3,13.043,6.689,34.382c1.105,6.4,2.512,15.475,3.961,25.021,1.038,6.921,2.093,14.093,3.061,20.708l.01.016c2.123,14.662,3.782,26.493,3.782,26.493s-9.568,2.893-9.874,1.814c-.91-3.221-24.264-68.309-28.281-78.388-6.89-17.316-7.666-17.752-7.666-17.752Z" transform="translate(-1460.439 -1626.515)" fill="#f0b41d"/>
            <path id="Path_422" data-name="Path 422" d="M1448.8,1783.9l-3.157,8.416,17.937,7.508,9.256-.175-12.678-13.706A36.638,36.638,0,0,0,1448.8,1783.9Z" transform="translate(-1445.64 -1683.605)" fill="#261910"/>
          </g>
        </g>
        <g id="Group_133" data-name="Group 133" transform="translate(15.475)">
          <g id="Group_130" data-name="Group 130" transform="translate(0 26.041)">
            <g id="Group_129" data-name="Group 129">
              <path id="Path_423" data-name="Path 423" d="M1535.747,1553.43l-9.834,5.563s13.866,18.585,23.339,21.873,40.647-12.17,43.96-15.037c1.018-.881,1.123-3.381.08-4.236-2.07-1.7-7.694-3.584-13.151.827,0,0,1.665-3.464.654-3.92s-3.078,1.826-4.247,4.238c-3.094,6.361-17.54,8.393-20.685,7.214C1549.134,1567.629,1541.879,1560.035,1535.747,1553.43Z" transform="translate(-1490.268 -1530.313)" fill="#f9a6a6"/>
              <path id="Path_424" data-name="Path 424" d="M1522.932,1528.18a30.46,30.46,0,0,1,14.643,20.643l-11.789,6.064s-11.108-11.343-8.154-18.788S1522.932,1528.18,1522.932,1528.18Z" transform="translate(-1487.079 -1521.143)" fill="#ffde6e"/>
              <path id="Path_425" data-name="Path 425" d="M1493.132,1524.557s-.025-1.07-2.741-.6-13.725,1.827-15.9,4.242c-5.652,6.274.877,31.664.877,31.664s-4.519,24.374.111,30.4c5.736,7.468,33.869,9.174,37.665-.091,6.186-15.1.825-45.05-.273-51.493-1.365-8.006-4.452-9.768-6.642-11.645C1503.062,1524.321,1493.132,1524.557,1493.132,1524.557Z" transform="translate(-1470.757 -1519.566)" fill="url(#linear-gradient-3)"/>
              <path id="Path_426" data-name="Path 426" d="M1519.017,1527.355l-.9,1.669s-1.607,4.08-5.842,4.141c-5.605.082-7.324-6.181-7.324-6.181l-1.36-3.029Z" transform="translate(-1482.162 -1519.609)" fill="#ffde6e"/>
              <path id="Path_427" data-name="Path 427" d="M1518.6,1518.022l-.389,7.1s-1.607,4.079-5.842,4.142c-5.605.081-7.324-6.182-7.324-6.182l-1.193-5.954Z" transform="translate(-1482.258 -1517.13)" fill="#f9a6a6"/>
              <path id="Path_428" data-name="Path 428" d="M1518.6,1518.022s-2.491,5.247-5.52,5.556c-5.383.549-9.228-6.448-9.228-6.448Z" transform="translate(-1482.258 -1517.13)" fill="#e29191"/>
              <g id="Group_128" data-name="Group 128" transform="translate(55.741 8.771)">
                <path id="Path_429" data-name="Path 429" d="M1562.695,1539.171l-2.971-2.992,28.656-5.275,23.552,7.516-4.287,4.287-27.618,6.364Z" transform="translate(-1558.288 -1530.903)" fill="#f8bd37"/>
                <path id="Path_430" data-name="Path 430" d="M1598.437,1576.153l27.887-4.61-.332-28.837-27.3,3.246Z" transform="translate(-1572.347 -1535.189)" fill="#ffde6e"/>
                <path id="Path_431" data-name="Path 431" d="M1580.057,1534.661l7.12-1.368,22.8,7.1-.167,5.876-3.28.747-.519-1-.419,1.329-2.51.66.4-6.278Z" transform="translate(-1565.672 -1531.771)" fill="#fff" opacity="0.45"/>
                <path id="Path_432" data-name="Path 432" d="M1617.9,1588.733l.329-4.545,1.594-.188.3.583.24-.763,4.2-.859.129,4.644Z" transform="translate(-1579.415 -1549.809)" fill="#fff" opacity="0.45"/>
                <path id="Path_433" data-name="Path 433" d="M1558.905,1539.187l-1.436,30,26.09,5.684,1.466-29.931Z" transform="translate(-1557.469 -1533.912)" fill="#f9dd8c"/>
              </g>
              <path id="Path_434" data-name="Path 434" d="M1494.166,1557.173l-10.587,6.455s13.866,18.585,23.339,21.873,40.648-12.17,43.96-15.038c1.018-.881,1.124-3.381.081-4.236-2.071-1.7-7.7-3.584-13.151.827,0,0,1.665-3.464.653-3.92s-3.078,1.826-4.247,4.238c-3.094,6.361-17.539,8.394-20.684,7.214C1506.8,1572.263,1500.3,1563.778,1494.166,1557.173Z" transform="translate(-1474.893 -1531.672)" fill="#f9a6a6"/>
              <path id="Path_435" data-name="Path 435" d="M1478.938,1526.974c6.272.833,8.385,6.018,11.445,20.939l-11.789,6.064s-11.108-11.343-8.154-18.789S1476.577,1526.661,1478.938,1526.974Z" transform="translate(-1469.941 -1520.688)" fill="#ffde6e"/>
            </g>
          </g>
          <g id="Group_132" data-name="Group 132" transform="translate(15.19)">
            <path id="Path_436" data-name="Path 436" d="M1518.945,1495.1a8.238,8.238,0,0,0-.238-.9c-2.192-7.242-16.024-2.212-16.024-2.212l-5.44,2.541-.286.127a2.373,2.373,0,0,0-.249-.117,2.726,2.726,0,0,0-1.992-.152,1.786,1.786,0,0,0-.9,1.672c-.232,2.961,1.8,7.491,3.626,6.72,0,0,2.23,6.081,4.913,6.925,2.692.864,7.934,4.1,11.708.234C1517.668,1506.236,1520.644,1501.839,1518.945,1495.1Z" transform="translate(-1493.792 -1481.339)" fill="#f9a6a6"/>
            <g id="Group_131" data-name="Group 131" transform="translate(1.078)">
              <path id="Path_437" data-name="Path 437" d="M1506.439,1496.574s-3.667,4.092-3.845,5.438-.525-3.177-1.771-4.032-2.413-.423-2.115-.926S1506.439,1496.574,1506.439,1496.574Z" transform="translate(-1496.638 -1483.624)" fill="#261910"/>
              <path id="Path_438" data-name="Path 438" d="M1523.423,1490.349c-.846.023-1.628.06-2.357.1a7.448,7.448,0,0,0-.253-.876c-2.325-7.013-16.921-2.167-16.921-2.167l-5.739,2.45-.564.01a3.127,3.127,0,0,0-2.1-.151c.043-1.246.471-8.727,4.534-10.833,4.463-2.309,13.4-5.577,18.354,2.516.6,1,.614,3.551,1.451,4.423C1520.655,1486.682,1527.6,1490.234,1523.423,1490.349Z" transform="translate(-1495.485 -1476.239)" fill="#ffde6e"/>
              <path id="Path_439" data-name="Path 439" d="M1521.346,1491.26a33.262,33.262,0,0,0-4.723.059c-4.969-.532-11.208,1.526-11.208,1.526l-5.739,2.45,5.714-.114a3.718,3.718,0,0,0,.63.829c1.4,1.6,9.178,1.472,10.539.871a8.091,8.091,0,0,1,1.177-.372c.159-.036.349-.072.524-.11.343-.065.71-.132,1.121-.192.226-.031.467-.059.712-.093.473-.053.988-.105,1.533-.15.217-.015.42-.035.648-.049.823-.057,1.7-.1,2.672-.13C1529.119,1495.669,1522.177,1492.117,1521.346,1491.26Z" transform="translate(-1497.007 -1481.673)" fill="#f8bd37"/>
            </g>
          </g>
        </g>
        <path id="Path_440" data-name="Path 440" d="M1505.413,1683.453l4-18.013s5.254,43.282,5.254,42.531S1505.413,1683.453,1505.413,1683.453Z" transform="translate(-1467.347 -1544.95)" fill="#231f20" opacity="0.31"/>
      </g>
    </g>
  </g>
</svg>
