<svg xmlns="http://www.w3.org/2000/svg" xmlns:xlink="http://www.w3.org/1999/xlink" width="113.188" height="141.943" viewBox="0 0 113.188 141.943">
  <defs>
    <linearGradient id="linear-gradient" x1="0.5" x2="0.5" y2="1" gradientUnits="objectBoundingBox">
      <stop offset="0" stop-color="#f0b41d"/>
      <stop offset="1" stop-color="#f19f22"/>
    </linearGradient>
  </defs>
  <g id="Group_155" data-name="Group 155" transform="translate(-101 -173.585)">
    <g id="Group_153" data-name="Group 153" transform="translate(101 173.585)">
      <path id="Path_530" data-name="Path 530" d="M-659.742-72.717c0-15,15.55-32.681,34.921-32.681,19.885,0,35.075,18.769,35.075,32.681,0,17.455-15.7,31.6-35.075,31.6S-659.742-55.263-659.742-72.717Z" transform="translate(681.324 111.691)" fill="#fff"/>
      <path id="Path_531" data-name="Path 531" d="M-606.384,377.71c0,2.844-.01,5.687.008,8.531a1.286,1.286,0,0,1-.719,1.282c-5.264,3.12-10.494,6.3-15.778,9.383-4.121,2.408-8.179,4.924-12.271,7.383-3.014,1.812-6.045,3.6-9.05,5.423a1.593,1.593,0,0,1-1.929,0q-4.773-2.95-9.638-5.751c-4.111-2.37-8.153-4.856-12.223-7.294q-7.625-4.565-15.258-9.117a1.278,1.278,0,0,1-.736-1.216c.02-5.662.01-11.323.015-16.985,0-.982.042-1.031.9-.532,2.266,1.322,4.5,2.7,6.754,4.038,1.772,1.056,3.514,2.172,5.342,3.124,2.043,1.065,3.984,2.295,5.968,3.455a.852.852,0,0,0,.986,0c4.457-2.668,8.968-5.247,13.375-8,1.578-.985,3.2-1.907,4.8-2.85a1.145,1.145,0,0,1,1.332.022c2.921,1.777,5.889,3.477,8.823,5.232,2.162,1.294,4.275,2.673,6.456,3.933.941.544,1.827,1.17,2.772,1.7a1.085,1.085,0,0,0,1.209-.024c2.71-1.627,5.438-3.224,8.151-4.848q5.023-3.006,10.031-6.038c.553-.333.692-.113.69.45-.013,2.895-.006,5.79-.006,8.685Z" transform="translate(701.833 -289.251)" fill="#efa81f"/>
      <path id="Path_532" data-name="Path 532" d="M-705.829,189.79c1.036-.442,1.812.05,2.675.593,3.576,2.25,7.174,4.464,10.718,6.766,1.7,1.108,3.447,2.158,5.187,3.211.619.375.234.6-.09.806q-2.642,1.693-5.3,3.36c-1.684,1.057-3.381,2.094-5.066,3.15-5.478,3.434-10.994,6.81-16.413,10.334-3.087,2.007-6.34,3.744-9.352,5.866a1.013,1.013,0,0,1-1.253.025q-6.083-3.675-12.184-7.318c-2.052-1.231-4.107-2.457-6.147-3.708a.77.77,0,0,0-.973.157,36.941,36.941,0,0,1-4.09,2.522c-2.266,1.317-4.478,2.723-6.742,4.041-2.5,1.453-4.973,2.944-7.446,4.439a.814.814,0,0,1-.98-.011c-1.542-.977-3.1-1.934-4.643-2.9q-2.613-1.636-5.22-3.28c-3.269-2.072-6.523-4.167-9.8-6.222-3.712-2.326-7.449-4.613-11.168-6.928-1.881-1.17-3.744-2.37-5.625-3.541-.458-.286-.505-.494-.013-.8,3.349-2.067,6.688-4.151,10.036-6.22,2.287-1.413,4.584-2.809,6.873-4.22a1.76,1.76,0,0,1,1.481,0l.1.181-.018,0c1.1.553,2.144,1.186,3.192,1.824,2.875,1.749,5.776,3.457,8.666,5.182l14.478,8.647c3.558,2.124,7.13,4.225,10.661,6.393a1.383,1.383,0,0,0,1.7,0c5.189-3.138,10.4-6.237,15.607-9.348C-720.775,199.067-706.76,190.606-705.829,189.79Z" transform="translate(800.108 -137.966)" fill="#efa81f"/>
      <path id="Path_533" data-name="Path 533" d="M-605.527,105.708c-.393.867-14.945,9.277-21.16,12.993-5.2,3.112-10.417,6.211-15.607,9.348a1.383,1.383,0,0,1-1.7,0c-3.531-2.168-7.1-4.268-10.661-6.393l-14.478-8.647c-2.89-1.725-5.79-3.433-8.666-5.182-1.048-.638-2.1-1.271-3.192-1.824l.017,0-.1-.181a19.49,19.49,0,0,1,2.949-15.566c.2,1.708.188,3.416.449,5.1.81,5.23,2.9,9.774,7.1,13.174.348.282.845.841,1.138.609.357-.283-.174-.794-.342-1.188-.48-1.126-1.008-2.231-1.538-3.388a2.522,2.522,0,0,1,1.685.5,16.67,16.67,0,0,1,4.614,4.11c2.134,2.65,4.042,5.475,6.215,8.1a12.748,12.748,0,0,0,1.938,1.954l.19.124c.03-.094.032-.179-.08-.222q-.407-1.514-.814-3.028c-.065-.24-.285-.559-.054-.707.3-.19.491.17.656.372a20,20,0,0,0,10.28,6.32c3.358.994,6.467.251,9.558-.949a17.811,17.811,0,0,0,7.54-5.367,1.2,1.2,0,0,1,.844-.508c-.279.983-.548,1.926-.814,2.869-.064.225-.3.475.039.664.31.171.462-.1.634-.275a47.066,47.066,0,0,0,5.478-6.9,19.563,19.563,0,0,1,7.374-7c.2-.1.387-.429.658-.153.25.255-.025.474-.119.683-.532,1.189-1.084,2.37-1.625,3.556-.078.172-.292.37-.072.541s.365-.067.523-.185a19.2,19.2,0,0,0,7.422-11.8,36.08,36.08,0,0,0,.692-6.946,5.182,5.182,0,0,1,1.49,1.816,18.756,18.756,0,0,1,2.045,10.241A14.686,14.686,0,0,1-605.527,105.708Z" transform="translate(699.806 -53.884)" fill="#281b13"/>
      <path id="Path_534" data-name="Path 534" d="M-379.569,26.248l-1.335-1.81a7.935,7.935,0,0,1,4.92,1.3,10.3,10.3,0,0,1,4.037,5.962,15.69,15.69,0,0,1-.216,8.92.659.659,0,0,0-.026.514l1.929-1.551A5.747,5.747,0,0,1-371.8,43.7a6.726,6.726,0,0,1-6.72,1.99c-.877-.176-1.757-.338-2.624-.555-.458-.114-.675-.025-.816.45a25.348,25.348,0,0,1-1.03,2.822,26.106,26.106,0,0,0-5.141-12.271c.868.27,1.447.909,2.282,1.254-.209-.343-.412-.69-.629-1.028A13.671,13.671,0,0,1-388.635,32a5.435,5.435,0,0,1,1.913-5.831,5.772,5.772,0,0,1,4.951-.469c.7.2,1.382.464,2.072.7Zm-5.374,3.52c.527,0,.944-.185.95-.7.007-.585-.508-.909-.9-1.255-.126-.111-.875.93-.841,1.241A.75.75,0,0,0-384.944,29.768Zm-1.146,2.09a1.882,1.882,0,0,0,2.429.224,1.7,1.7,0,0,0,.826-2.072A2.691,2.691,0,0,1-386.089,31.858Z" transform="translate(452.043 1.823)" fill="#281b13"/>
      <path id="Path_535" data-name="Path 535" d="M-580.841,37.114c.437-.307.894-.59,1.3-.934.163-.138.313-.228.453-.113.209.172-.034.312-.118.438-.947,1.4-1.881,2.8-2.7,4.28a15.348,15.348,0,0,0-1.883,6.495c-.022.339.057.879-.306.938-.441.072-.372-.5-.488-.8-.3-.781-.349-1.885-.909-2.282-.585-.415-1.571.246-2.391.39a9.788,9.788,0,0,1-4.928-.122,6.465,6.465,0,0,1-4.167-5.924l2.088,1.671a4.837,4.837,0,0,0-.37-2.019,12.931,12.931,0,0,1,2.3-11.881,7.89,7.89,0,0,1,6.613-2.89c-.369.8-1.042,1.326-1.392,2.185.865-.277,1.6-.518,2.336-.747a6.468,6.468,0,0,1,4-.036c2.412.784,3.58,3.122,2.94,5.806a24.351,24.351,0,0,1-2.159,4.879c-.1.208-.374.386-.2.681l-.106-.038-.008.1Zm-.077-5.431c-1.807.527-2.793-.374-3.534-1.987-.08,1.394.289,2.06,1.2,2.48A1.88,1.88,0,0,0-580.917,31.683Zm-1.544-1.737c.27.011,1.031-.84.97-1.061a1.066,1.066,0,0,0-.937-.874.607.607,0,0,0-.722.685C-583.136,29.237-582.716,29.573-582.462,29.946Z" transform="translate(628.21 1.878)" fill="#281b13"/>
      <path id="Path_536" data-name="Path 536" d="M-372.739-132.165a19.9,19.9,0,0,0-10.9-5.329,15.218,15.218,0,0,0-2.37-.184c-.2,0-.517.129-.529-.243-.01-.287.276-.263.456-.3.624-.131,1.25-.268,1.882-.348a2.468,2.468,0,0,0,2.08-1.558,10.223,10.223,0,0,1,7.608-5.962,10.635,10.635,0,0,1,10.844,4.008,12.83,12.83,0,0,1,3.028,8.867,1.549,1.549,0,0,1-.226.918c-.49-.387-.662-1.005-1.12-1.519a4.75,4.75,0,0,0-.368,1.363,16.373,16.373,0,0,1-2.457,5.743.86.86,0,0,0-.042,1.024c1.068,1.976,2.085,3.981,3.1,5.984.1.194.417.477.091.657s-.388-.243-.514-.423a50.03,50.03,0,0,0-13.691-13.164c-.085-.056-.181-.1-.265-.153-.124-.086-.286-.173-.2-.36.1-.212.27-.068.391-.023,1.026.383,2.047.777,3.069,1.168l.192.017Z" transform="translate(450.128 146.326)" fill="#281b13"/>
      <path id="Path_537" data-name="Path 537" d="M-645.706-119.418a50.137,50.137,0,0,1,3.122-6.274c.137-.251.359-.458.062-.808a12.611,12.611,0,0,1-2.8-7.009,2.731,2.731,0,0,0-.11-.348l-1.261,1.812a7.924,7.924,0,0,1,.012-4.007c.813-3.258,2.2-6.178,5.058-8.151,4.534-3.129,11.585-2.8,15.255,2.4a9.515,9.515,0,0,1,1.07,2.029,1.786,1.786,0,0,0,1.453,1.2c.78.131,1.558.282,2.328.463.185.043.548-.045.524.3-.023.325-.351.241-.557.239a18.726,18.726,0,0,0-4.025.486,21.033,21.033,0,0,0-9.661,5.441c1.064-.425,1.959-.792,2.863-1.137.231-.088.544-.4.718-.009.134.3-.263.385-.451.514a53.293,53.293,0,0,0-12.493,11.7c-.293.386-.594.765-.9,1.143C-645.516-119.41-645.59-119.426-645.706-119.418Z" transform="translate(670.493 146.229)" fill="#281b13"/>
      <path id="Path_538" data-name="Path 538" d="M-480.049,171.036c-4.469,4.718-15.567,4.736-20.912-.067a10.164,10.164,0,0,1,2.928.442,26.081,26.081,0,0,0,3.794.925,2.079,2.079,0,0,0,2.5-1.788c.057-.374-.015-.551-.411-.643a15.159,15.159,0,0,1-2.058-.6,5.488,5.488,0,0,1-2.671-2.1,1.288,1.288,0,0,1,.635-2.153,9.928,9.928,0,0,1,4.128-.722c1.97.052,3.939.157,5.907.257a3.5,3.5,0,0,1,.969.2c1.917.676,2.137,1.661.71,3.141a6.978,6.978,0,0,1-3.856,1.9c-.642.124-.818.346-.6.994a1.912,1.912,0,0,0,2.082,1.542,14.816,14.816,0,0,0,4.157-1A4.208,4.208,0,0,1-480.049,171.036Z" transform="translate(546.956 -116.555)" fill="#281b13"/>
      <path id="Path_539" data-name="Path 539" d="M-677.7,192.654l-.017,0Z" transform="translate(696.539 -140.531)" fill="#fefefd"/>
      <path id="Path_540" data-name="Path 540" d="M-520.645,278.044c.112.043.11.128.08.222l-.19-.124Q-520.7,278.091-520.645,278.044Z" transform="translate(563.708 -212.795)" fill="#fefefd"/>
      <path id="Path_541" data-name="Path 541" d="M-492.579,107.17l-.1.079.008-.1.106.038Z" transform="translate(539.948 -68.179)" fill="#fefefd"/>
      <path id="Path_542" data-name="Path 542" d="M-297.493-54.221l.063.182-.192-.017Z" transform="translate(374.882 68.383)" fill="#fefefd"/>
    </g>
    <g id="Group_154" data-name="Group 154" transform="translate(136.369 269.484)">
      <g id="Ellipse_9" data-name="Ellipse 9" transform="translate(-0.181 0.045)" stroke="#fff" stroke-linejoin="round" stroke-width="3" fill="url(#linear-gradient)">
        <circle cx="21.5" cy="21.5" r="21.5" stroke="none"/>
        <circle cx="21.5" cy="21.5" r="23" fill="none"/>
      </g>
      <g id="bound_120" transform="translate(11.039 13.244)">
        <path id="Combined_Shape" data-name="Combined Shape" d="M5.03,15.452.712,11.132A2.43,2.43,0,1,1,4.148,7.7l2.6,2.6,3.727-3.727h0L16.336.712a2.429,2.429,0,1,1,3.435,3.436l-9.295,9.3L8.468,15.452a2.431,2.431,0,0,1-3.438,0Z" transform="translate(0 0)" fill="#fff"/>
        <text id="_120" data-name="120" transform="translate(9.78 9.801)" fill="#fff" font-size="8" font-family="Montserrat-Regular, Montserrat" opacity="0"><tspan x="-6.348" y="0">120</tspan></text>
      </g>
    </g>
  </g>
</svg>
